solid Mesh.part.part.part.part
facet normal -1.313259e-03 -2.117285e-03 9.719131e-05
outer loop
vertex 1.539861e+02 -4.265395e+01 -6.900654e+00
vertex 1.539815e+02 -4.265395e+01 -6.961889e+00
vertex 1.540161e+02 -4.267540e+01 -6.961889e+00
endloop
endfacet
facet normal -1.121713e-03 -1.839777e-03 9.398093e-05
outer loop
vertex 1.540161e+02 -4.267540e+01 -6.961889e+00
vertex 1.540161e+02 -4.267227e+01 -6.900654e+00
vertex 1.539861e+02 -4.265395e+01 -6.900654e+00
endloop
endfacet
facet normal -1.121721e-03 -1.839791e-03 1.366819e-04
outer loop
vertex 1.539935e+02 -4.265395e+01 -6.839419e+00
vertex 1.539861e+02 -4.265395e+01 -6.900654e+00
vertex 1.540161e+02 -4.267227e+01 -6.900654e+00
endloop
endfacet
facet normal -8.315968e-04 -1.382880e-03 1.069950e-04
outer loop
vertex 1.540161e+02 -4.267227e+01 -6.900654e+00
vertex 1.540161e+02 -4.266753e+01 -6.839419e+00
vertex 1.539935e+02 -4.265395e+01 -6.839419e+00
endloop
endfacet
facet normal -1.352746e-03 -3.749661e-03 2.901155e-04
outer loop
vertex 1.540161e+02 -4.266753e+01 -6.839419e+00
vertex 1.540161e+02 -4.267227e+01 -6.900654e+00
vertex 1.540773e+02 -4.268962e+01 -6.839419e+00
endloop
endfacet
facet normal -1.296217e-03 -3.749661e-03 2.335873e-04
outer loop
vertex 1.540773e+02 -4.268962e+01 -6.839419e+00
vertex 1.540161e+02 -4.267227e+01 -6.900654e+00
vertex 1.540773e+02 -4.269344e+01 -6.900654e+00
endloop
endfacet
facet normal -8.315904e-04 -1.382869e-03 3.087567e-05
outer loop
vertex 1.539958e+02 -4.265395e+01 -6.778184e+00
vertex 1.539935e+02 -4.265395e+01 -6.839419e+00
vertex 1.540161e+02 -4.266753e+01 -6.839419e+00
endloop
endfacet
facet normal -6.865293e-04 -1.243648e-03 4.811160e-05
outer loop
vertex 1.540161e+02 -4.266753e+01 -6.839419e+00
vertex 1.540161e+02 -4.266516e+01 -6.778184e+00
vertex 1.539958e+02 -4.265395e+01 -6.778184e+00
endloop
endfacet
facet normal -1.379599e-03 -3.749632e-03 1.450577e-04
outer loop
vertex 1.540161e+02 -4.266516e+01 -6.778184e+00
vertex 1.540161e+02 -4.266753e+01 -6.839419e+00
vertex 1.540773e+02 -4.268769e+01 -6.778184e+00
endloop
endfacet
facet normal -1.352736e-03 -3.749632e-03 1.181952e-04
outer loop
vertex 1.540773e+02 -4.268769e+01 -6.778184e+00
vertex 1.540161e+02 -4.266753e+01 -6.839419e+00
vertex 1.540773e+02 -4.268962e+01 -6.839419e+00
endloop
endfacet
facet normal -7.185370e-04 -1.432402e-03 -3.616745e-05
outer loop
vertex 1.539927e+02 -4.265395e+01 -6.716949e+00
vertex 1.539958e+02 -4.265395e+01 -6.778184e+00
vertex 1.540161e+02 -4.266568e+01 -6.716949e+00
endloop
endfacet
facet normal -6.865346e-04 -1.243658e-03 -1.061399e-05
outer loop
vertex 1.540161e+02 -4.266568e+01 -6.716949e+00
vertex 1.539958e+02 -4.265395e+01 -6.778184e+00
vertex 1.540161e+02 -4.266516e+01 -6.778184e+00
endloop
endfacet
facet normal -1.379610e-03 -3.749661e-03 -3.200147e-05
outer loop
vertex 1.540161e+02 -4.266568e+01 -6.716949e+00
vertex 1.540161e+02 -4.266516e+01 -6.778184e+00
vertex 1.540773e+02 -4.268769e+01 -6.778184e+00
endloop
endfacet
facet normal -1.338030e-03 -3.749661e-03 9.577081e-06
outer loop
vertex 1.540773e+02 -4.268769e+01 -6.778184e+00
vertex 1.540773e+02 -4.268753e+01 -6.716949e+00
vertex 1.540161e+02 -4.266568e+01 -6.716949e+00
endloop
endfacet
facet normal -9.117127e-04 -1.679999e-03 -6.020389e-05
outer loop
vertex 1.539887e+02 -4.265395e+01 -6.655714e+00
vertex 1.539927e+02 -4.265395e+01 -6.716949e+00
vertex 1.540161e+02 -4.266884e+01 -6.655714e+00
endloop
endfacet
facet normal -7.185314e-04 -1.432391e-03 -7.379515e-05
outer loop
vertex 1.540161e+02 -4.266884e+01 -6.655714e+00
vertex 1.539927e+02 -4.265395e+01 -6.716949e+00
vertex 1.540161e+02 -4.266568e+01 -6.716949e+00
endloop
endfacet
facet normal -1.338020e-03 -3.749632e-03 -1.931767e-04
outer loop
vertex 1.540161e+02 -4.266884e+01 -6.655714e+00
vertex 1.540161e+02 -4.266568e+01 -6.716949e+00
vertex 1.540773e+02 -4.268753e+01 -6.716949e+00
endloop
endfacet
facet normal -1.307886e-03 -3.749632e-03 -1.630440e-04
outer loop
vertex 1.540773e+02 -4.268753e+01 -6.716949e+00
vertex 1.540773e+02 -4.269020e+01 -6.655714e+00
vertex 1.540161e+02 -4.266884e+01 -6.655714e+00
endloop
endfacet
facet normal -1.466974e-04 -3.749661e-03 2.335873e-04
outer loop
vertex 1.540773e+02 -4.268962e+01 -6.839419e+00
vertex 1.540773e+02 -4.269344e+01 -6.900654e+00
vertex 1.541386e+02 -4.269202e+01 -6.839419e+00
endloop
endfacet
facet normal -2.576529e-04 -3.749632e-03 1.181952e-04
outer loop
vertex 1.540773e+02 -4.268769e+01 -6.778184e+00
vertex 1.540773e+02 -4.268962e+01 -6.839419e+00
vertex 1.541386e+02 -4.269190e+01 -6.778184e+00
endloop
endfacet
facet normal -1.466963e-04 -3.749632e-03 7.241208e-06
outer loop
vertex 1.541386e+02 -4.269190e+01 -6.778184e+00
vertex 1.540773e+02 -4.268962e+01 -6.839419e+00
vertex 1.541386e+02 -4.269202e+01 -6.839419e+00
endloop
endfacet
facet normal 5.905226e-04 -3.749632e-03 7.241208e-06
outer loop
vertex 1.541386e+02 -4.269190e+01 -6.778184e+00
vertex 1.541386e+02 -4.269202e+01 -6.839419e+00
vertex 1.541998e+02 -4.268225e+01 -6.778184e+00
endloop
endfacet
facet normal -2.576549e-04 -3.749661e-03 9.577081e-06
outer loop
vertex 1.540773e+02 -4.268753e+01 -6.716949e+00
vertex 1.540773e+02 -4.268769e+01 -6.778184e+00
vertex 1.541386e+02 -4.269190e+01 -6.778184e+00
endloop
endfacet
facet normal -3.704811e-04 -3.749661e-03 -1.032456e-04
outer loop
vertex 1.541386e+02 -4.269190e+01 -6.778184e+00
vertex 1.541386e+02 -4.269358e+01 -6.716949e+00
vertex 1.540773e+02 -4.268753e+01 -6.716949e+00
endloop
endfacet
facet normal 5.160105e-04 -3.749661e-03 -1.032456e-04
outer loop
vertex 1.541386e+02 -4.269358e+01 -6.716949e+00
vertex 1.541386e+02 -4.269190e+01 -6.778184e+00
vertex 1.541998e+02 -4.268516e+01 -6.716949e+00
endloop
endfacet
facet normal 5.905272e-04 -3.749661e-03 -1.777600e-04
outer loop
vertex 1.541998e+02 -4.268516e+01 -6.716949e+00
vertex 1.541386e+02 -4.269190e+01 -6.778184e+00
vertex 1.541998e+02 -4.268225e+01 -6.778184e+00
endloop
endfacet
facet normal -3.704782e-04 -3.749632e-03 -1.630440e-04
outer loop
vertex 1.540773e+02 -4.269020e+01 -6.655714e+00
vertex 1.540773e+02 -4.268753e+01 -6.716949e+00
vertex 1.541386e+02 -4.269358e+01 -6.716949e+00
endloop
endfacet
facet normal -2.856840e-04 -3.749632e-03 -7.825176e-05
outer loop
vertex 1.541386e+02 -4.269358e+01 -6.716949e+00
vertex 1.541386e+02 -4.269486e+01 -6.655714e+00
vertex 1.540773e+02 -4.269020e+01 -6.655714e+00
endloop
endfacet
facet normal 6.447161e-04 -3.749632e-03 -7.825176e-05
outer loop
vertex 1.541386e+02 -4.269486e+01 -6.655714e+00
vertex 1.541386e+02 -4.269358e+01 -6.716949e+00
vertex 1.541998e+02 -4.268433e+01 -6.655714e+00
endloop
endfacet
facet normal 5.160065e-04 -3.749632e-03 5.045487e-05
outer loop
vertex 1.541998e+02 -4.268433e+01 -6.655714e+00
vertex 1.541386e+02 -4.269358e+01 -6.716949e+00
vertex 1.541998e+02 -4.268516e+01 -6.716949e+00
endloop
endfacet
facet normal -1.808008e-03 -9.829585e-04 3.559166e-05
outer loop
vertex 1.539388e+02 -4.259272e+01 -6.900654e+00
vertex 1.539376e+02 -4.259272e+01 -6.961889e+00
vertex 1.539548e+02 -4.262224e+01 -6.900654e+00
endloop
endfacet
facet normal -2.050711e-03 -1.056774e-03 6.840035e-05
outer loop
vertex 1.539548e+02 -4.262224e+01 -6.900654e+00
vertex 1.539376e+02 -4.259272e+01 -6.961889e+00
vertex 1.539548e+02 -4.262621e+01 -6.961889e+00
endloop
endfacet
facet normal -3.749865e-03 3.102112e-04 -1.224074e-04
outer loop
vertex 1.539407e+02 -4.253148e+01 -6.900654e+00
vertex 1.539427e+02 -4.253148e+01 -6.961889e+00
vertex 1.539376e+02 -4.259272e+01 -6.961889e+00
endloop
endfacet
facet normal -3.749865e-03 1.139933e-04 7.381820e-05
outer loop
vertex 1.539376e+02 -4.259272e+01 -6.961889e+00
vertex 1.539388e+02 -4.259272e+01 -6.900654e+00
vertex 1.539407e+02 -4.253148e+01 -6.900654e+00
endloop
endfacet
facet normal -1.698921e-03 -1.633281e-03 1.057151e-04
outer loop
vertex 1.539548e+02 -4.262224e+01 -6.900654e+00
vertex 1.539548e+02 -4.262621e+01 -6.961889e+00
vertex 1.539815e+02 -4.265395e+01 -6.961889e+00
endloop
endfacet
facet normal -1.941623e-03 -1.910789e-03 1.436952e-04
outer loop
vertex 1.539815e+02 -4.265395e+01 -6.961889e+00
vertex 1.539861e+02 -4.265395e+01 -6.900654e+00
vertex 1.539548e+02 -4.262224e+01 -6.900654e+00
endloop
endfacet
facet normal -2.757499e-04 6.101816e-05 -3.924267e-05
outer loop
vertex 1.539542e+02 -4.247025e+01 -6.900654e+00
vertex 1.539548e+02 -4.247025e+01 -6.905158e+00
vertex 1.539407e+02 -4.253148e+01 -6.900654e+00
endloop
endfacet
facet normal -3.551048e-03 8.050611e-04 -2.431660e-04
outer loop
vertex 1.539407e+02 -4.253148e+01 -6.900654e+00
vertex 1.539548e+02 -4.247025e+01 -6.905158e+00
vertex 1.539548e+02 -4.248738e+01 -6.961889e+00
endloop
endfacet
facet normal -2.700333e-03 7.465626e-04 -8.814735e-05
outer loop
vertex 1.539407e+02 -4.253148e+01 -6.900654e+00
vertex 1.539548e+02 -4.248738e+01 -6.961889e+00
vertex 1.539427e+02 -4.253148e+01 -6.961889e+00
endloop
endfacet
facet normal -2.789794e-05 2.885994e-06 -3.970228e-06
outer loop
vertex 1.539548e+02 -4.246405e+01 -6.900654e+00
vertex 1.539548e+02 -4.247025e+01 -6.905158e+00
vertex 1.539542e+02 -4.247025e+01 -6.900654e+00
endloop
endfacet
facet normal -9.721329e-04 1.947728e-04 -5.883048e-05
outer loop
vertex 1.539548e+02 -4.248738e+01 -6.961889e+00
vertex 1.539548e+02 -4.247025e+01 -6.905158e+00
vertex 1.539583e+02 -4.247025e+01 -6.961889e+00
endloop
endfacet
facet normal -3.370277e-03 2.401334e-04 1.536871e-04
outer loop
vertex 1.539588e+02 -4.240901e+01 -6.900654e+00
vertex 1.539560e+02 -4.240901e+01 -6.961889e+00
vertex 1.539548e+02 -4.246405e+01 -6.900654e+00
endloop
endfacet
facet normal -3.749632e-03 -1.410901e-04 -1.959547e-04
outer loop
vertex 1.539548e+02 -4.246405e+01 -6.900654e+00
vertex 1.539560e+02 -4.240901e+01 -6.961889e+00
vertex 1.539583e+02 -4.247025e+01 -6.961889e+00
endloop
endfacet
facet normal -3.514568e-04 1.546068e-05 -2.126908e-05
outer loop
vertex 1.539548e+02 -4.246405e+01 -6.900654e+00
vertex 1.539583e+02 -4.247025e+01 -6.961889e+00
vertex 1.539548e+02 -4.247025e+01 -6.905158e+00
endloop
endfacet
facet normal -1.473048e-03 -9.128877e-04 2.752931e-05
outer loop
vertex 1.539399e+02 -4.259272e+01 -6.839419e+00
vertex 1.539388e+02 -4.259272e+01 -6.900654e+00
vertex 1.539548e+02 -4.261677e+01 -6.839419e+00
endloop
endfacet
facet normal -1.808022e-03 -9.829662e-04 8.781021e-05
outer loop
vertex 1.539548e+02 -4.261677e+01 -6.839419e+00
vertex 1.539388e+02 -4.259272e+01 -6.900654e+00
vertex 1.539548e+02 -4.262224e+01 -6.900654e+00
endloop
endfacet
facet normal -3.749894e-03 -2.924605e-04 -3.363867e-04
outer loop
vertex 1.539352e+02 -4.253148e+01 -6.839419e+00
vertex 1.539407e+02 -4.253148e+01 -6.900654e+00
vertex 1.539399e+02 -4.259272e+01 -6.839419e+00
endloop
endfacet
facet normal -3.749894e-03 1.139942e-04 7.008057e-05
outer loop
vertex 1.539399e+02 -4.259272e+01 -6.839419e+00
vertex 1.539407e+02 -4.253148e+01 -6.900654e+00
vertex 1.539388e+02 -4.259272e+01 -6.900654e+00
endloop
endfacet
facet normal -1.473036e-03 -9.128807e-04 -9.470084e-05
outer loop
vertex 1.539360e+02 -4.259272e+01 -6.778184e+00
vertex 1.539399e+02 -4.259272e+01 -6.839419e+00
vertex 1.539548e+02 -4.261677e+01 -6.839419e+00
endloop
endfacet
facet normal -1.651501e-03 -1.153948e-03 -5.492126e-05
outer loop
vertex 1.539548e+02 -4.261677e+01 -6.839419e+00
vertex 1.539548e+02 -4.261969e+01 -6.778184e+00
vertex 1.539360e+02 -4.259272e+01 -6.778184e+00
endloop
endfacet
facet normal -3.749865e-03 -4.354170e-04 -3.840415e-04
outer loop
vertex 1.539289e+02 -4.253148e+01 -6.778184e+00
vertex 1.539352e+02 -4.253148e+01 -6.839419e+00
vertex 1.539360e+02 -4.259272e+01 -6.778184e+00
endloop
endfacet
facet normal -3.749865e-03 -2.924582e-04 -2.410772e-04
outer loop
vertex 1.539360e+02 -4.259272e+01 -6.778184e+00
vertex 1.539352e+02 -4.253148e+01 -6.839419e+00
vertex 1.539399e+02 -4.259272e+01 -6.839419e+00
endloop
endfacet
facet normal -1.941639e-03 -1.910804e-03 1.706957e-04
outer loop
vertex 1.539548e+02 -4.261677e+01 -6.839419e+00
vertex 1.539548e+02 -4.262224e+01 -6.900654e+00
vertex 1.539861e+02 -4.265395e+01 -6.900654e+00
endloop
endfacet
facet normal -2.276613e-03 -2.367715e-03 2.774057e-04
outer loop
vertex 1.539861e+02 -4.265395e+01 -6.900654e+00
vertex 1.539935e+02 -4.265395e+01 -6.839419e+00
vertex 1.539548e+02 -4.261677e+01 -6.839419e+00
endloop
endfacet
facet normal -2.276595e-03 -2.367697e-03 -1.126886e-04
outer loop
vertex 1.539548e+02 -4.261969e+01 -6.778184e+00
vertex 1.539548e+02 -4.261677e+01 -6.839419e+00
vertex 1.539935e+02 -4.265395e+01 -6.839419e+00
endloop
endfacet
facet normal -2.098131e-03 -2.506918e-03 7.790036e-05
outer loop
vertex 1.539935e+02 -4.265395e+01 -6.839419e+00
vertex 1.539958e+02 -4.265395e+01 -6.778184e+00
vertex 1.539548e+02 -4.261969e+01 -6.778184e+00
endloop
endfacet
facet normal -3.749661e-03 8.297281e-04 -5.176296e-04
outer loop
vertex 1.539458e+02 -4.247025e+01 -6.839419e+00
vertex 1.539542e+02 -4.247025e+01 -6.900654e+00
vertex 1.539407e+02 -4.253148e+01 -6.900654e+00
endloop
endfacet
facet normal -3.749661e-03 6.484587e-04 -3.363658e-04
outer loop
vertex 1.539407e+02 -4.253148e+01 -6.900654e+00
vertex 1.539352e+02 -4.253148e+01 -6.839419e+00
vertex 1.539458e+02 -4.247025e+01 -6.839419e+00
endloop
endfacet
facet normal -1.949286e-03 5.003152e-05 -4.606342e-04
outer loop
vertex 1.539473e+02 -4.240901e+01 -6.839419e+00
vertex 1.539548e+02 -4.240901e+01 -6.871253e+00
vertex 1.539458e+02 -4.247025e+01 -6.839419e+00
endloop
endfacet
facet normal -3.552449e-03 2.673868e-04 -5.005328e-04
outer loop
vertex 1.539458e+02 -4.247025e+01 -6.839419e+00
vertex 1.539548e+02 -4.240901e+01 -6.871253e+00
vertex 1.539548e+02 -4.246405e+01 -6.900654e+00
endloop
endfacet
facet normal -3.793577e-04 3.924390e-05 -5.236920e-05
outer loop
vertex 1.539458e+02 -4.247025e+01 -6.839419e+00
vertex 1.539548e+02 -4.246405e+01 -6.900654e+00
vertex 1.539542e+02 -4.247025e+01 -6.900654e+00
endloop
endfacet
facet normal -3.749632e-03 6.484536e-04 -6.260141e-04
outer loop
vertex 1.539355e+02 -4.247025e+01 -6.778184e+00
vertex 1.539458e+02 -4.247025e+01 -6.839419e+00
vertex 1.539352e+02 -4.253148e+01 -6.839419e+00
endloop
endfacet
facet normal -3.749632e-03 4.064515e-04 -3.840176e-04
outer loop
vertex 1.539352e+02 -4.253148e+01 -6.839419e+00
vertex 1.539289e+02 -4.253148e+01 -6.778184e+00
vertex 1.539355e+02 -4.247025e+01 -6.778184e+00
endloop
endfacet
facet normal -3.749632e-03 -1.111902e-04 -8.334396e-04
outer loop
vertex 1.539337e+02 -4.240901e+01 -6.778184e+00
vertex 1.539473e+02 -4.240901e+01 -6.839419e+00
vertex 1.539355e+02 -4.247025e+01 -6.778184e+00
endloop
endfacet
facet normal -3.749632e-03 9.624026e-05 -6.260141e-04
outer loop
vertex 1.539355e+02 -4.247025e+01 -6.778184e+00
vertex 1.539473e+02 -4.240901e+01 -6.839419e+00
vertex 1.539458e+02 -4.247025e+01 -6.839419e+00
endloop
endfacet
facet normal -1.618228e-03 1.152993e-04 -2.158338e-04
outer loop
vertex 1.539548e+02 -4.246405e+01 -6.900654e+00
vertex 1.539548e+02 -4.240901e+01 -6.871253e+00
vertex 1.539588e+02 -4.240901e+01 -6.900654e+00
endloop
endfacet
facet normal -1.651514e-03 -1.153957e-03 -2.168753e-04
outer loop
vertex 1.539280e+02 -4.259272e+01 -6.716949e+00
vertex 1.539360e+02 -4.259272e+01 -6.778184e+00
vertex 1.539548e+02 -4.261969e+01 -6.778184e+00
endloop
endfacet
facet normal -2.068948e-03 -1.646375e-03 -1.832781e-04
outer loop
vertex 1.539548e+02 -4.261969e+01 -6.778184e+00
vertex 1.539548e+02 -4.262650e+01 -6.716949e+00
vertex 1.539280e+02 -4.259272e+01 -6.716949e+00
endloop
endfacet
facet normal -3.749894e-03 -5.587583e-04 -6.157746e-04
outer loop
vertex 1.539188e+02 -4.253148e+01 -6.716949e+00
vertex 1.539289e+02 -4.253148e+01 -6.778184e+00
vertex 1.539280e+02 -4.259272e+01 -6.716949e+00
endloop
endfacet
facet normal -3.749894e-03 -4.354204e-04 -4.924328e-04
outer loop
vertex 1.539280e+02 -4.259272e+01 -6.716949e+00
vertex 1.539289e+02 -4.253148e+01 -6.778184e+00
vertex 1.539360e+02 -4.259272e+01 -6.778184e+00
endloop
endfacet
facet normal -2.250667e-03 -2.189232e-03 -3.258427e-04
outer loop
vertex 1.539191e+02 -4.259272e+01 -6.655714e+00
vertex 1.539280e+02 -4.259272e+01 -6.716949e+00
vertex 1.539548e+02 -4.262947e+01 -6.655714e+00
endloop
endfacet
facet normal -2.068931e-03 -1.646362e-03 -7.979316e-05
outer loop
vertex 1.539548e+02 -4.262947e+01 -6.655714e+00
vertex 1.539280e+02 -4.259272e+01 -6.716949e+00
vertex 1.539548e+02 -4.262650e+01 -6.716949e+00
endloop
endfacet
facet normal -3.749865e-03 -1.210945e-03 -1.195107e-03
outer loop
vertex 1.538993e+02 -4.253148e+01 -6.655714e+00
vertex 1.539188e+02 -4.253148e+01 -6.716949e+00
vertex 1.539191e+02 -4.259272e+01 -6.655714e+00
endloop
endfacet
facet normal -3.749865e-03 -5.587540e-04 -5.428908e-04
outer loop
vertex 1.539191e+02 -4.259272e+01 -6.655714e+00
vertex 1.539188e+02 -4.253148e+01 -6.716949e+00
vertex 1.539280e+02 -4.259272e+01 -6.716949e+00
endloop
endfacet
facet normal -2.098147e-03 -2.506937e-03 -2.790779e-04
outer loop
vertex 1.539548e+02 -4.262650e+01 -6.716949e+00
vertex 1.539548e+02 -4.261969e+01 -6.778184e+00
vertex 1.539958e+02 -4.265395e+01 -6.778184e+00
endloop
endfacet
facet normal -1.680713e-03 -2.318193e-03 -8.459843e-05
outer loop
vertex 1.539958e+02 -4.265395e+01 -6.778184e+00
vertex 1.539927e+02 -4.265395e+01 -6.716949e+00
vertex 1.539548e+02 -4.262650e+01 -6.716949e+00
endloop
endfacet
facet normal -1.680700e-03 -2.318175e-03 -1.123535e-04
outer loop
vertex 1.539548e+02 -4.262947e+01 -6.655714e+00
vertex 1.539548e+02 -4.262650e+01 -6.716949e+00
vertex 1.539927e+02 -4.265395e+01 -6.716949e+00
endloop
endfacet
facet normal -1.498965e-03 -2.070567e-03 -9.898242e-05
outer loop
vertex 1.539927e+02 -4.265395e+01 -6.716949e+00
vertex 1.539887e+02 -4.265395e+01 -6.655714e+00
vertex 1.539548e+02 -4.262947e+01 -6.655714e+00
endloop
endfacet
facet normal -3.749661e-03 4.064546e-04 -8.558640e-04
outer loop
vertex 1.539216e+02 -4.247025e+01 -6.716949e+00
vertex 1.539355e+02 -4.247025e+01 -6.778184e+00
vertex 1.539289e+02 -4.253148e+01 -6.778184e+00
endloop
endfacet
facet normal -3.749661e-03 1.663194e-04 -6.157362e-04
outer loop
vertex 1.539289e+02 -4.253148e+01 -6.778184e+00
vertex 1.539188e+02 -4.253148e+01 -6.716949e+00
vertex 1.539216e+02 -4.247025e+01 -6.716949e+00
endloop
endfacet
facet normal -3.749661e-03 -1.111910e-04 -4.288664e-04
outer loop
vertex 1.539267e+02 -4.240901e+01 -6.716949e+00
vertex 1.539337e+02 -4.240901e+01 -6.778184e+00
vertex 1.539355e+02 -4.247025e+01 -6.778184e+00
endloop
endfacet
facet normal -3.749661e-03 3.158199e-04 -8.558640e-04
outer loop
vertex 1.539355e+02 -4.247025e+01 -6.778184e+00
vertex 1.539216e+02 -4.247025e+01 -6.716949e+00
vertex 1.539267e+02 -4.240901e+01 -6.716949e+00
endloop
endfacet
facet normal -3.749632e-03 1.663181e-04 -9.483646e-04
outer loop
vertex 1.539061e+02 -4.247025e+01 -6.655714e+00
vertex 1.539216e+02 -4.247025e+01 -6.716949e+00
vertex 1.539188e+02 -4.253148e+01 -6.716949e+00
endloop
endfacet
facet normal -3.749632e-03 4.129921e-04 -1.195033e-03
outer loop
vertex 1.539188e+02 -4.253148e+01 -6.716949e+00
vertex 1.538993e+02 -4.253148e+01 -6.655714e+00
vertex 1.539061e+02 -4.247025e+01 -6.655714e+00
endloop
endfacet
facet normal -3.749632e-03 3.158175e-04 -3.307597e-04
outer loop
vertex 1.539213e+02 -4.240901e+01 -6.655714e+00
vertex 1.539267e+02 -4.240901e+01 -6.716949e+00
vertex 1.539216e+02 -4.247025e+01 -6.716949e+00
endloop
endfacet
facet normal -3.749632e-03 9.334369e-04 -9.483646e-04
outer loop
vertex 1.539216e+02 -4.247025e+01 -6.716949e+00
vertex 1.539061e+02 -4.247025e+01 -6.655714e+00
vertex 1.539213e+02 -4.240901e+01 -6.655714e+00
endloop
endfacet
facet normal -2.393543e-04 2.498959e-05 -6.914616e-05
outer loop
vertex 1.539537e+02 -4.234777e+01 -6.839419e+00
vertex 1.539548e+02 -4.234777e+01 -6.843328e+00
vertex 1.539473e+02 -4.240901e+01 -6.839419e+00
endloop
endfacet
facet normal -1.949408e-03 2.100682e-04 -4.606629e-04
outer loop
vertex 1.539473e+02 -4.240901e+01 -6.839419e+00
vertex 1.539548e+02 -4.234777e+01 -6.843328e+00
vertex 1.539548e+02 -4.240901e+01 -6.871253e+00
endloop
endfacet
facet normal -1.837540e-04 4.413436e-06 -5.308399e-05
outer loop
vertex 1.539548e+02 -4.230076e+01 -6.839419e+00
vertex 1.539548e+02 -4.234777e+01 -6.843328e+00
vertex 1.539537e+02 -4.234777e+01 -6.839419e+00
endloop
endfacet
facet normal -3.749865e-03 3.915016e-04 -6.223154e-04
outer loop
vertex 1.539436e+02 -4.234777e+01 -6.778184e+00
vertex 1.539537e+02 -4.234777e+01 -6.839419e+00
vertex 1.539473e+02 -4.240901e+01 -6.839419e+00
endloop
endfacet
facet normal -3.749865e-03 6.026694e-04 -8.334916e-04
outer loop
vertex 1.539473e+02 -4.240901e+01 -6.839419e+00
vertex 1.539337e+02 -4.240901e+01 -6.778184e+00
vertex 1.539436e+02 -4.234777e+01 -6.778184e+00
endloop
endfacet
facet normal -1.884583e-03 2.662742e-04 -1.616424e-04
outer loop
vertex 1.539522e+02 -4.228654e+01 -6.778184e+00
vertex 1.539548e+02 -4.228654e+01 -6.808961e+00
vertex 1.539436e+02 -4.234777e+01 -6.778184e+00
endloop
endfacet
facet normal -3.749632e-03 3.786682e-04 -6.222767e-04
outer loop
vertex 1.539436e+02 -4.234777e+01 -6.778184e+00
vertex 1.539548e+02 -4.228654e+01 -6.808961e+00
vertex 1.539537e+02 -4.234777e+01 -6.839419e+00
endloop
endfacet
facet normal -1.431900e-03 3.439163e-05 -1.605786e-05
outer loop
vertex 1.539537e+02 -4.234777e+01 -6.839419e+00
vertex 1.539548e+02 -4.228654e+01 -6.808961e+00
vertex 1.539548e+02 -4.230076e+01 -6.839419e+00
endloop
endfacet
facet normal -1.800487e-03 9.780255e-05 -2.401427e-04
outer loop
vertex 1.539588e+02 -4.240901e+01 -6.900654e+00
vertex 1.539548e+02 -4.240901e+01 -6.871253e+00
vertex 1.539621e+02 -4.234777e+01 -6.900654e+00
endloop
endfacet
facet normal -3.510540e-03 2.023984e-04 -4.438436e-04
outer loop
vertex 1.539621e+02 -4.234777e+01 -6.900654e+00
vertex 1.539548e+02 -4.240901e+01 -6.871253e+00
vertex 1.539548e+02 -4.234777e+01 -6.843328e+00
endloop
endfacet
facet normal -8.708407e-04 1.569756e-04 -7.703435e-05
outer loop
vertex 1.539574e+02 -4.228654e+01 -6.839419e+00
vertex 1.539628e+02 -4.228654e+01 -6.900654e+00
vertex 1.539548e+02 -4.230076e+01 -6.839419e+00
endloop
endfacet
facet normal -3.749661e-03 4.485020e-05 -4.782488e-04
outer loop
vertex 1.539548e+02 -4.230076e+01 -6.839419e+00
vertex 1.539628e+02 -4.228654e+01 -6.900654e+00
vertex 1.539621e+02 -4.234777e+01 -6.900654e+00
endloop
endfacet
facet normal -2.695066e-03 2.832949e-05 -3.407418e-04
outer loop
vertex 1.539548e+02 -4.230076e+01 -6.839419e+00
vertex 1.539621e+02 -4.234777e+01 -6.900654e+00
vertex 1.539548e+02 -4.234777e+01 -6.843328e+00
endloop
endfacet
facet normal -4.331487e-04 7.807830e-05 -3.645569e-05
outer loop
vertex 1.539548e+02 -4.230076e+01 -6.839419e+00
vertex 1.539548e+02 -4.228654e+01 -6.808961e+00
vertex 1.539574e+02 -4.228654e+01 -6.839419e+00
endloop
endfacet
facet normal -3.008699e-03 -1.381011e-03 -3.215836e-04
outer loop
vertex 1.539548e+02 -4.226018e+01 -6.900654e+00
vertex 1.539548e+02 -4.227444e+01 -6.839419e+00
vertex 1.539323e+02 -4.222530e+01 -6.839419e+00
endloop
endfacet
facet normal -3.749865e-03 -1.406097e-03 -5.045801e-05
outer loop
vertex 1.539315e+02 -4.222530e+01 -6.778184e+00
vertex 1.539323e+02 -4.222530e+01 -6.839419e+00
vertex 1.539548e+02 -4.228654e+01 -6.808961e+00
endloop
endfacet
facet normal -1.884700e-03 -6.382128e-04 -1.616525e-04
outer loop
vertex 1.539315e+02 -4.222530e+01 -6.778184e+00
vertex 1.539548e+02 -4.228654e+01 -6.808961e+00
vertex 1.539522e+02 -4.228654e+01 -6.778184e+00
endloop
endfacet
facet normal -1.496501e-03 -6.869031e-04 -2.729761e-04
outer loop
vertex 1.539548e+02 -4.228654e+01 -6.808961e+00
vertex 1.539323e+02 -4.222530e+01 -6.839419e+00
vertex 1.539548e+02 -4.227444e+01 -6.839419e+00
endloop
endfacet
facet normal -1.614372e-03 -4.886800e-04 -1.137945e-04
outer loop
vertex 1.539548e+02 -4.227444e+01 -6.839419e+00
vertex 1.539548e+02 -4.226018e+01 -6.900654e+00
vertex 1.539628e+02 -4.228654e+01 -6.900654e+00
endloop
endfacet
facet normal -7.411957e-04 -1.569756e-04 -6.556598e-05
outer loop
vertex 1.539628e+02 -4.228654e+01 -6.900654e+00
vertex 1.539574e+02 -4.228654e+01 -6.839419e+00
vertex 1.539548e+02 -4.227444e+01 -6.839419e+00
endloop
endfacet
facet normal -3.686644e-04 -7.807830e-05 -3.102841e-05
outer loop
vertex 1.539574e+02 -4.228654e+01 -6.839419e+00
vertex 1.539548e+02 -4.228654e+01 -6.808961e+00
vertex 1.539548e+02 -4.227444e+01 -6.839419e+00
endloop
endfacet
facet normal -3.749894e-03 6.026741e-04 -1.737998e-04
outer loop
vertex 1.539407e+02 -4.234777e+01 -6.716949e+00
vertex 1.539436e+02 -4.234777e+01 -6.778184e+00
vertex 1.539337e+02 -4.240901e+01 -6.778184e+00
endloop
endfacet
facet normal -3.749894e-03 8.577594e-04 -4.288931e-04
outer loop
vertex 1.539337e+02 -4.240901e+01 -6.778184e+00
vertex 1.539267e+02 -4.240901e+01 -6.716949e+00
vertex 1.539407e+02 -4.234777e+01 -6.716949e+00
endloop
endfacet
facet normal -3.749661e-03 5.297926e-04 -3.391688e-04
outer loop
vertex 1.539467e+02 -4.228654e+01 -6.716949e+00
vertex 1.539522e+02 -4.228654e+01 -6.778184e+00
vertex 1.539436e+02 -4.234777e+01 -6.778184e+00
endloop
endfacet
facet normal -3.749661e-03 3.644076e-04 -1.737890e-04
outer loop
vertex 1.539436e+02 -4.234777e+01 -6.778184e+00
vertex 1.539407e+02 -4.234777e+01 -6.716949e+00
vertex 1.539467e+02 -4.228654e+01 -6.716949e+00
endloop
endfacet
facet normal -3.749865e-03 8.577527e-04 -2.205202e-04
outer loop
vertex 1.539371e+02 -4.234777e+01 -6.655714e+00
vertex 1.539407e+02 -4.234777e+01 -6.716949e+00
vertex 1.539267e+02 -4.240901e+01 -6.716949e+00
endloop
endfacet
facet normal -3.749865e-03 9.680086e-04 -3.307803e-04
outer loop
vertex 1.539267e+02 -4.240901e+01 -6.716949e+00
vertex 1.539213e+02 -4.240901e+01 -6.655714e+00
vertex 1.539371e+02 -4.234777e+01 -6.655714e+00
endloop
endfacet
facet normal -3.749632e-03 3.644048e-04 -5.260387e-04
outer loop
vertex 1.539381e+02 -4.228654e+01 -6.655714e+00
vertex 1.539467e+02 -4.228654e+01 -6.716949e+00
vertex 1.539407e+02 -4.234777e+01 -6.716949e+00
endloop
endfacet
facet normal -3.749632e-03 5.886538e-05 -2.205065e-04
outer loop
vertex 1.539407e+02 -4.234777e+01 -6.716949e+00
vertex 1.539371e+02 -4.234777e+01 -6.655714e+00
vertex 1.539381e+02 -4.228654e+01 -6.655714e+00
endloop
endfacet
facet normal -3.749894e-03 -1.029685e-03 -9.904720e-05
outer loop
vertex 1.539299e+02 -4.222530e+01 -6.716949e+00
vertex 1.539315e+02 -4.222530e+01 -6.778184e+00
vertex 1.539467e+02 -4.228654e+01 -6.716949e+00
endloop
endfacet
facet normal -3.749894e-03 -1.269820e-03 -3.391900e-04
outer loop
vertex 1.539467e+02 -4.228654e+01 -6.716949e+00
vertex 1.539315e+02 -4.222530e+01 -6.778184e+00
vertex 1.539522e+02 -4.228654e+01 -6.778184e+00
endloop
endfacet
facet normal -3.749865e-03 -1.123114e-03 -6.195122e-04
outer loop
vertex 1.539197e+02 -4.222530e+01 -6.655714e+00
vertex 1.539299e+02 -4.222530e+01 -6.716949e+00
vertex 1.539381e+02 -4.228654e+01 -6.655714e+00
endloop
endfacet
facet normal -3.749865e-03 -1.029677e-03 -5.260715e-04
outer loop
vertex 1.539381e+02 -4.228654e+01 -6.655714e+00
vertex 1.539299e+02 -4.222530e+01 -6.716949e+00
vertex 1.539467e+02 -4.228654e+01 -6.716949e+00
endloop
endfacet
facet normal -1.251824e-03 -1.952836e-03 -9.108498e-05
outer loop
vertex 1.539842e+02 -4.265395e+01 -6.594479e+00
vertex 1.539887e+02 -4.265395e+01 -6.655714e+00
vertex 1.540161e+02 -4.267439e+01 -6.594479e+00
endloop
endfacet
facet normal -9.117128e-04 -1.679999e-03 -1.523811e-04
outer loop
vertex 1.540161e+02 -4.267439e+01 -6.594479e+00
vertex 1.539887e+02 -4.265395e+01 -6.655714e+00
vertex 1.540161e+02 -4.266884e+01 -6.655714e+00
endloop
endfacet
facet normal -1.307886e-03 -3.749632e-03 -3.401032e-04
outer loop
vertex 1.540161e+02 -4.267439e+01 -6.594479e+00
vertex 1.540161e+02 -4.266884e+01 -6.655714e+00
vertex 1.540773e+02 -4.269020e+01 -6.655714e+00
endloop
endfacet
facet normal -1.379365e-03 -3.749632e-03 -4.115809e-04
outer loop
vertex 1.540773e+02 -4.269020e+01 -6.655714e+00
vertex 1.540773e+02 -4.269692e+01 -6.594479e+00
vertex 1.540161e+02 -4.267439e+01 -6.594479e+00
endloop
endfacet
facet normal -1.521168e-03 -2.169627e-03 -8.793920e-05
outer loop
vertex 1.539807e+02 -4.265395e+01 -6.533243e+00
vertex 1.539842e+02 -4.265395e+01 -6.594479e+00
vertex 1.540161e+02 -4.267879e+01 -6.533243e+00
endloop
endfacet
facet normal -1.251834e-03 -1.952851e-03 -1.402671e-04
outer loop
vertex 1.540161e+02 -4.267879e+01 -6.533243e+00
vertex 1.539842e+02 -4.265395e+01 -6.594479e+00
vertex 1.540161e+02 -4.267439e+01 -6.594479e+00
endloop
endfacet
facet normal -1.379376e-03 -3.749661e-03 -2.693262e-04
outer loop
vertex 1.540161e+02 -4.267879e+01 -6.533243e+00
vertex 1.540161e+02 -4.267439e+01 -6.594479e+00
vertex 1.540773e+02 -4.269692e+01 -6.594479e+00
endloop
endfacet
facet normal -1.591480e-03 -3.749661e-03 -4.814235e-04
outer loop
vertex 1.540773e+02 -4.269692e+01 -6.594479e+00
vertex 1.540773e+02 -4.270478e+01 -6.533243e+00
vertex 1.540161e+02 -4.267879e+01 -6.533243e+00
endloop
endfacet
facet normal -1.597074e-03 -2.395728e-03 -9.630772e-05
outer loop
vertex 1.539770e+02 -4.265395e+01 -6.472008e+00
vertex 1.539807e+02 -4.265395e+01 -6.533243e+00
vertex 1.540161e+02 -4.268003e+01 -6.472008e+00
endloop
endfacet
facet normal -1.521156e-03 -2.169610e-03 -4.392641e-05
outer loop
vertex 1.540161e+02 -4.268003e+01 -6.472008e+00
vertex 1.539807e+02 -4.265395e+01 -6.533243e+00
vertex 1.540161e+02 -4.267879e+01 -6.533243e+00
endloop
endfacet
facet normal -1.591468e-03 -3.749632e-03 -7.591589e-05
outer loop
vertex 1.540161e+02 -4.268003e+01 -6.472008e+00
vertex 1.540161e+02 -4.267879e+01 -6.533243e+00
vertex 1.540773e+02 -4.270478e+01 -6.533243e+00
endloop
endfacet
facet normal -1.654071e-03 -3.749632e-03 -1.385173e-04
outer loop
vertex 1.540773e+02 -4.270478e+01 -6.533243e+00
vertex 1.540773e+02 -4.270704e+01 -6.472008e+00
vertex 1.540161e+02 -4.268003e+01 -6.472008e+00
endloop
endfacet
facet normal -1.597086e-03 -2.395746e-03 9.590975e-05
outer loop
vertex 1.539807e+02 -4.265395e+01 -6.410773e+00
vertex 1.539770e+02 -4.265395e+01 -6.472008e+00
vertex 1.540161e+02 -4.268003e+01 -6.472008e+00
endloop
endfacet
facet normal -1.364893e-03 -2.170561e-03 1.344051e-04
outer loop
vertex 1.540161e+02 -4.268003e+01 -6.472008e+00
vertex 1.540161e+02 -4.267624e+01 -6.410773e+00
vertex 1.539807e+02 -4.265395e+01 -6.410773e+00
endloop
endfacet
facet normal -1.447352e-03 -3.749661e-03 2.321858e-04
outer loop
vertex 1.540161e+02 -4.267624e+01 -6.410773e+00
vertex 1.540161e+02 -4.268003e+01 -6.472008e+00
vertex 1.540773e+02 -4.269987e+01 -6.410773e+00
endloop
endfacet
facet normal -1.654083e-03 -3.749661e-03 4.389106e-04
outer loop
vertex 1.540773e+02 -4.269987e+01 -6.410773e+00
vertex 1.540161e+02 -4.268003e+01 -6.472008e+00
vertex 1.540773e+02 -4.270704e+01 -6.472008e+00
endloop
endfacet
facet normal -1.364883e-03 -2.170544e-03 2.037243e-04
outer loop
vertex 1.539898e+02 -4.265395e+01 -6.349538e+00
vertex 1.539807e+02 -4.265395e+01 -6.410773e+00
vertex 1.540161e+02 -4.267624e+01 -6.410773e+00
endloop
endfacet
facet normal -1.069855e-03 -1.610856e-03 1.267421e-04
outer loop
vertex 1.540161e+02 -4.267624e+01 -6.410773e+00
vertex 1.540161e+02 -4.267142e+01 -6.349538e+00
vertex 1.539898e+02 -4.265395e+01 -6.349538e+00
endloop
endfacet
facet normal -1.366752e-03 -3.749632e-03 2.950208e-04
outer loop
vertex 1.540161e+02 -4.267142e+01 -6.349538e+00
vertex 1.540161e+02 -4.267624e+01 -6.410773e+00
vertex 1.540773e+02 -4.269374e+01 -6.349538e+00
endloop
endfacet
facet normal -1.447341e-03 -3.749632e-03 3.756084e-04
outer loop
vertex 1.540773e+02 -4.269374e+01 -6.349538e+00
vertex 1.540161e+02 -4.267624e+01 -6.410773e+00
vertex 1.540773e+02 -4.269987e+01 -6.410773e+00
endloop
endfacet
facet normal -1.069855e-03 -1.610856e-03 1.380942e-04
outer loop
vertex 1.539977e+02 -4.265395e+01 -6.288303e+00
vertex 1.539898e+02 -4.265395e+01 -6.349538e+00
vertex 1.540161e+02 -4.267142e+01 -6.349538e+00
endloop
endfacet
facet normal -7.491321e-04 -1.126852e-03 9.638246e-05
outer loop
vertex 1.540161e+02 -4.267142e+01 -6.349538e+00
vertex 1.540161e+02 -4.266618e+01 -6.288303e+00
vertex 1.539977e+02 -4.265395e+01 -6.288303e+00
endloop
endfacet
facet normal -1.452480e-03 -3.749632e-03 3.207154e-04
outer loop
vertex 1.540161e+02 -4.266618e+01 -6.288303e+00
vertex 1.540161e+02 -4.267142e+01 -6.349538e+00
vertex 1.540773e+02 -4.268990e+01 -6.288303e+00
endloop
endfacet
facet normal -1.366752e-03 -3.749632e-03 2.349889e-04
outer loop
vertex 1.540773e+02 -4.268990e+01 -6.288303e+00
vertex 1.540161e+02 -4.267142e+01 -6.349538e+00
vertex 1.540773e+02 -4.269374e+01 -6.349538e+00
endloop
endfacet
facet normal -7.491380e-04 -1.126861e-03 9.072258e-05
outer loop
vertex 1.540051e+02 -4.265395e+01 -6.227067e+00
vertex 1.539977e+02 -4.265395e+01 -6.288303e+00
vertex 1.540161e+02 -4.266618e+01 -6.288303e+00
endloop
endfacet
facet normal -4.573783e-04 -6.727525e-04 5.234499e-05
outer loop
vertex 1.540161e+02 -4.266618e+01 -6.288303e+00
vertex 1.540161e+02 -4.266142e+01 -6.227067e+00
vertex 1.540051e+02 -4.265395e+01 -6.227067e+00
endloop
endfacet
facet normal -1.584239e-03 -3.749661e-03 2.917506e-04
outer loop
vertex 1.540161e+02 -4.266142e+01 -6.227067e+00
vertex 1.540161e+02 -4.266618e+01 -6.288303e+00
vertex 1.540773e+02 -4.268729e+01 -6.227067e+00
endloop
endfacet
facet normal -1.452491e-03 -3.749661e-03 1.600073e-04
outer loop
vertex 1.540773e+02 -4.268729e+01 -6.227067e+00
vertex 1.540161e+02 -4.266618e+01 -6.288303e+00
vertex 1.540773e+02 -4.268990e+01 -6.288303e+00
endloop
endfacet
facet normal -7.297439e-04 -9.951054e-04 -6.273505e-05
outer loop
vertex 1.539998e+02 -4.265395e+01 -6.165833e+00
vertex 1.540051e+02 -4.265395e+01 -6.227067e+00
vertex 1.540161e+02 -4.266587e+01 -6.165833e+00
endloop
endfacet
facet normal -4.573747e-04 -6.727473e-04 -4.886650e-05
outer loop
vertex 1.540161e+02 -4.266587e+01 -6.165833e+00
vertex 1.540051e+02 -4.265395e+01 -6.227067e+00
vertex 1.540161e+02 -4.266142e+01 -6.227067e+00
endloop
endfacet
facet normal -1.584226e-03 -3.749632e-03 -2.723628e-04
outer loop
vertex 1.540161e+02 -4.266587e+01 -6.165833e+00
vertex 1.540161e+02 -4.266142e+01 -6.227067e+00
vertex 1.540773e+02 -4.268729e+01 -6.227067e+00
endloop
endfacet
facet normal -1.473036e-03 -3.749632e-03 -1.611753e-04
outer loop
vertex 1.540773e+02 -4.268729e+01 -6.227067e+00
vertex 1.540773e+02 -4.268992e+01 -6.165833e+00
vertex 1.540161e+02 -4.266587e+01 -6.165833e+00
endloop
endfacet
facet normal -2.856840e-04 -3.749632e-03 -4.115809e-04
outer loop
vertex 1.540773e+02 -4.269692e+01 -6.594479e+00
vertex 1.540773e+02 -4.269020e+01 -6.655714e+00
vertex 1.541386e+02 -4.269486e+01 -6.655714e+00
endloop
endfacet
facet normal -1.284760e-04 -3.749632e-03 -2.543766e-04
outer loop
vertex 1.541386e+02 -4.269486e+01 -6.655714e+00
vertex 1.541386e+02 -4.269902e+01 -6.594479e+00
vertex 1.540773e+02 -4.269692e+01 -6.594479e+00
endloop
endfacet
facet normal 9.254946e-04 -3.749632e-03 -2.543766e-04
outer loop
vertex 1.541386e+02 -4.269902e+01 -6.594479e+00
vertex 1.541386e+02 -4.269486e+01 -6.655714e+00
vertex 1.541998e+02 -4.268390e+01 -6.594479e+00
endloop
endfacet
facet normal 6.447161e-04 -3.749632e-03 2.639537e-05
outer loop
vertex 1.541998e+02 -4.268390e+01 -6.594479e+00
vertex 1.541386e+02 -4.269486e+01 -6.655714e+00
vertex 1.541998e+02 -4.268433e+01 -6.655714e+00
endloop
endfacet
facet normal -1.284770e-04 -3.749661e-03 -4.814235e-04
outer loop
vertex 1.540773e+02 -4.270478e+01 -6.533243e+00
vertex 1.540773e+02 -4.269692e+01 -6.594479e+00
vertex 1.541386e+02 -4.269902e+01 -6.594479e+00
endloop
endfacet
facet normal -1.086215e-04 -3.749661e-03 -4.615686e-04
outer loop
vertex 1.541386e+02 -4.269902e+01 -6.594479e+00
vertex 1.541386e+02 -4.270655e+01 -6.533243e+00
vertex 1.540773e+02 -4.270478e+01 -6.533243e+00
endloop
endfacet
facet normal 1.342702e-03 -3.749661e-03 -4.615686e-04
outer loop
vertex 1.541386e+02 -4.270655e+01 -6.533243e+00
vertex 1.541386e+02 -4.269902e+01 -6.594479e+00
vertex 1.541998e+02 -4.268463e+01 -6.533243e+00
endloop
endfacet
facet normal 9.255019e-04 -3.749661e-03 -4.438160e-05
outer loop
vertex 1.541998e+02 -4.268463e+01 -6.533243e+00
vertex 1.541386e+02 -4.269902e+01 -6.594479e+00
vertex 1.541998e+02 -4.268390e+01 -6.594479e+00
endloop
endfacet
facet normal -1.086206e-04 -3.749632e-03 -1.385173e-04
outer loop
vertex 1.540773e+02 -4.270704e+01 -6.472008e+00
vertex 1.540773e+02 -4.270478e+01 -6.533243e+00
vertex 1.541386e+02 -4.270655e+01 -6.533243e+00
endloop
endfacet
facet normal -6.937706e-05 -3.749632e-03 -9.927462e-05
outer loop
vertex 1.541386e+02 -4.270655e+01 -6.533243e+00
vertex 1.541386e+02 -4.270818e+01 -6.472008e+00
vertex 1.540773e+02 -4.270704e+01 -6.472008e+00
endloop
endfacet
facet normal 1.342691e-03 -3.749632e-03 -9.927462e-05
outer loop
vertex 1.541386e+02 -4.270818e+01 -6.472008e+00
vertex 1.541386e+02 -4.270655e+01 -6.533243e+00
vertex 1.541998e+02 -4.268463e+01 -6.533243e+00
endloop
endfacet
facet normal 1.601045e-03 -3.749632e-03 1.590730e-04
outer loop
vertex 1.541998e+02 -4.268463e+01 -6.533243e+00
vertex 1.541998e+02 -4.268203e+01 -6.472008e+00
vertex 1.541386e+02 -4.270818e+01 -6.472008e+00
endloop
endfacet
facet normal -6.937759e-05 -3.749661e-03 4.389106e-04
outer loop
vertex 1.540773e+02 -4.269987e+01 -6.410773e+00
vertex 1.540773e+02 -4.270704e+01 -6.472008e+00
vertex 1.541386e+02 -4.270818e+01 -6.472008e+00
endloop
endfacet
facet normal 6.190257e-05 -3.749661e-03 5.701867e-04
outer loop
vertex 1.541386e+02 -4.270818e+01 -6.472008e+00
vertex 1.541386e+02 -4.269886e+01 -6.410773e+00
vertex 1.540773e+02 -4.269987e+01 -6.410773e+00
endloop
endfacet
facet normal 1.601057e-03 -3.749661e-03 5.701867e-04
outer loop
vertex 1.541386e+02 -4.269886e+01 -6.410773e+00
vertex 1.541386e+02 -4.270818e+01 -6.472008e+00
vertex 1.541998e+02 -4.268203e+01 -6.472008e+00
endloop
endfacet
facet normal 1.449688e-03 -3.749661e-03 4.188221e-04
outer loop
vertex 1.541998e+02 -4.268203e+01 -6.472008e+00
vertex 1.541998e+02 -4.267519e+01 -6.410773e+00
vertex 1.541386e+02 -4.269886e+01 -6.410773e+00
endloop
endfacet
facet normal 6.190210e-05 -3.749632e-03 3.756084e-04
outer loop
vertex 1.540773e+02 -4.269374e+01 -6.349538e+00
vertex 1.540773e+02 -4.269987e+01 -6.410773e+00
vertex 1.541386e+02 -4.269886e+01 -6.410773e+00
endloop
endfacet
facet normal 1.836040e-04 -3.749632e-03 4.973075e-04
outer loop
vertex 1.541386e+02 -4.269886e+01 -6.410773e+00
vertex 1.541386e+02 -4.269074e+01 -6.349538e+00
vertex 1.540773e+02 -4.269374e+01 -6.349538e+00
endloop
endfacet
facet normal 1.449677e-03 -3.749632e-03 4.973075e-04
outer loop
vertex 1.541386e+02 -4.269074e+01 -6.349538e+00
vertex 1.541386e+02 -4.269886e+01 -6.410773e+00
vertex 1.541998e+02 -4.267519e+01 -6.410773e+00
endloop
endfacet
facet normal 1.237107e-03 -3.749632e-03 2.847430e-04
outer loop
vertex 1.541998e+02 -4.267519e+01 -6.410773e+00
vertex 1.541998e+02 -4.267054e+01 -6.349538e+00
vertex 1.541386e+02 -4.269074e+01 -6.349538e+00
endloop
endfacet
facet normal 1.836039e-04 -3.749632e-03 2.349889e-04
outer loop
vertex 1.540773e+02 -4.268990e+01 -6.288303e+00
vertex 1.540773e+02 -4.269374e+01 -6.349538e+00
vertex 1.541386e+02 -4.269074e+01 -6.349538e+00
endloop
endfacet
facet normal 2.090656e-04 -3.749632e-03 2.604499e-04
outer loop
vertex 1.541386e+02 -4.269074e+01 -6.349538e+00
vertex 1.541386e+02 -4.268649e+01 -6.288303e+00
vertex 1.540773e+02 -4.268990e+01 -6.288303e+00
endloop
endfacet
facet normal 1.237107e-03 -3.749632e-03 2.604499e-04
outer loop
vertex 1.541386e+02 -4.268649e+01 -6.288303e+00
vertex 1.541386e+02 -4.269074e+01 -6.349538e+00
vertex 1.541998e+02 -4.267054e+01 -6.349538e+00
endloop
endfacet
facet normal 1.123114e-03 -3.749632e-03 1.464593e-04
outer loop
vertex 1.541998e+02 -4.267054e+01 -6.349538e+00
vertex 1.541998e+02 -4.266815e+01 -6.288303e+00
vertex 1.541386e+02 -4.268649e+01 -6.288303e+00
endloop
endfacet
facet normal 2.090672e-04 -3.749661e-03 1.600073e-04
outer loop
vertex 1.540773e+02 -4.268729e+01 -6.227067e+00
vertex 1.540773e+02 -4.268990e+01 -6.288303e+00
vertex 1.541386e+02 -4.268649e+01 -6.288303e+00
endloop
endfacet
facet normal 2.254188e-04 -3.749661e-03 1.763584e-04
outer loop
vertex 1.541386e+02 -4.268649e+01 -6.288303e+00
vertex 1.541386e+02 -4.268361e+01 -6.227067e+00
vertex 1.540773e+02 -4.268729e+01 -6.227067e+00
endloop
endfacet
facet normal 1.123123e-03 -3.749661e-03 1.763584e-04
outer loop
vertex 1.541386e+02 -4.268361e+01 -6.227067e+00
vertex 1.541386e+02 -4.268649e+01 -6.288303e+00
vertex 1.541998e+02 -4.266815e+01 -6.288303e+00
endloop
endfacet
facet normal 1.155593e-03 -3.749661e-03 2.088271e-04
outer loop
vertex 1.541998e+02 -4.266815e+01 -6.288303e+00
vertex 1.541998e+02 -4.266474e+01 -6.227067e+00
vertex 1.541386e+02 -4.268361e+01 -6.227067e+00
endloop
endfacet
facet normal -2.334527e-03 -2.790032e-03 -3.740507e-04
outer loop
vertex 1.539093e+02 -4.259272e+01 -6.594479e+00
vertex 1.539191e+02 -4.259272e+01 -6.655714e+00
vertex 1.539548e+02 -4.263084e+01 -6.594479e+00
endloop
endfacet
facet normal -2.250667e-03 -2.189232e-03 -4.896062e-05
outer loop
vertex 1.539548e+02 -4.263084e+01 -6.594479e+00
vertex 1.539191e+02 -4.259272e+01 -6.655714e+00
vertex 1.539548e+02 -4.262947e+01 -6.655714e+00
endloop
endfacet
facet normal -1.754249e-03 -5.981816e-04 -5.061796e-04
outer loop
vertex 1.538805e+02 -4.253148e+01 -6.594479e+00
vertex 1.538936e+02 -4.253148e+01 -6.640010e+00
vertex 1.538936e+02 -4.257001e+01 -6.594479e+00
endloop
endfacet
facet normal -3.393252e-03 -1.160236e-03 -9.817886e-04
outer loop
vertex 1.538936e+02 -4.257001e+01 -6.594479e+00
vertex 1.538936e+02 -4.253148e+01 -6.640010e+00
vertex 1.539191e+02 -4.259272e+01 -6.655714e+00
endloop
endfacet
facet normal -1.390578e-03 -9.595992e-04 -2.228061e-04
outer loop
vertex 1.538936e+02 -4.257001e+01 -6.594479e+00
vertex 1.539191e+02 -4.259272e+01 -6.655714e+00
vertex 1.539093e+02 -4.259272e+01 -6.594479e+00
endloop
endfacet
facet normal -9.616514e-04 -3.105464e-04 -3.494684e-04
outer loop
vertex 1.539191e+02 -4.259272e+01 -6.655714e+00
vertex 1.538936e+02 -4.253148e+01 -6.640010e+00
vertex 1.538993e+02 -4.253148e+01 -6.655714e+00
endloop
endfacet
facet normal -2.443400e-03 -3.327322e-03 -3.500900e-04
outer loop
vertex 1.539005e+02 -4.259272e+01 -6.533243e+00
vertex 1.539093e+02 -4.259272e+01 -6.594479e+00
vertex 1.539548e+02 -4.263262e+01 -6.533243e+00
endloop
endfacet
facet normal -2.334545e-03 -2.790054e-03 -8.099456e-05
outer loop
vertex 1.539548e+02 -4.263262e+01 -6.533243e+00
vertex 1.539093e+02 -4.259272e+01 -6.594479e+00
vertex 1.539548e+02 -4.263084e+01 -6.594479e+00
endloop
endfacet
facet normal -2.359306e-03 -8.044998e-04 -2.181099e-04
outer loop
vertex 1.538748e+02 -4.253148e+01 -6.533243e+00
vertex 1.538805e+02 -4.253148e+01 -6.594479e+00
vertex 1.538936e+02 -4.257001e+01 -6.594479e+00
endloop
endfacet
facet normal -3.214729e-03 -1.151154e-03 -2.626088e-04
outer loop
vertex 1.538936e+02 -4.257001e+01 -6.594479e+00
vertex 1.538936e+02 -4.258398e+01 -6.533243e+00
vertex 1.538748e+02 -4.253148e+01 -6.533243e+00
endloop
endfacet
facet normal -1.390589e-03 -9.596067e-04 -2.189117e-04
outer loop
vertex 1.538936e+02 -4.258398e+01 -6.533243e+00
vertex 1.538936e+02 -4.257001e+01 -6.594479e+00
vertex 1.539093e+02 -4.259272e+01 -6.594479e+00
endloop
endfacet
facet normal -5.351653e-04 -4.223391e-04 -7.667841e-05
outer loop
vertex 1.539093e+02 -4.259272e+01 -6.594479e+00
vertex 1.539005e+02 -4.259272e+01 -6.533243e+00
vertex 1.538936e+02 -4.258398e+01 -6.533243e+00
endloop
endfacet
facet normal -1.415105e-03 -1.797730e-03 -4.020496e-05
outer loop
vertex 1.539548e+02 -4.263084e+01 -6.594479e+00
vertex 1.539548e+02 -4.262947e+01 -6.655714e+00
vertex 1.539842e+02 -4.265395e+01 -6.594479e+00
endloop
endfacet
facet normal -1.498965e-03 -2.070567e-03 -1.090674e-04
outer loop
vertex 1.539842e+02 -4.265395e+01 -6.594479e+00
vertex 1.539548e+02 -4.262947e+01 -6.655714e+00
vertex 1.539887e+02 -4.265395e+01 -6.655714e+00
endloop
endfacet
facet normal -1.306261e-03 -1.580968e-03 -4.589511e-05
outer loop
vertex 1.539548e+02 -4.263262e+01 -6.533243e+00
vertex 1.539548e+02 -4.263084e+01 -6.594479e+00
vertex 1.539807e+02 -4.265395e+01 -6.533243e+00
endloop
endfacet
facet normal -1.415116e-03 -1.797744e-03 -8.180831e-05
outer loop
vertex 1.539807e+02 -4.265395e+01 -6.533243e+00
vertex 1.539548e+02 -4.263084e+01 -6.594479e+00
vertex 1.539842e+02 -4.265395e+01 -6.594479e+00
endloop
endfacet
facet normal -2.786998e-03 5.981816e-04 -8.041741e-04
outer loop
vertex 1.538936e+02 -4.247027e+01 -6.594479e+00
vertex 1.538936e+02 -4.253148e+01 -6.640010e+00
vertex 1.538805e+02 -4.253148e+01 -6.594479e+00
endloop
endfacet
facet normal -3.749272e-03 5.669177e-04 -7.621441e-04
outer loop
vertex 1.538936e+02 -4.247027e+01 -6.594479e+00
vertex 1.539061e+02 -4.247025e+01 -6.655714e+00
vertex 1.538936e+02 -4.253148e+01 -6.640010e+00
endloop
endfacet
facet normal -9.615915e-04 1.059116e-04 -3.494467e-04
outer loop
vertex 1.538936e+02 -4.253148e+01 -6.640010e+00
vertex 1.539061e+02 -4.247025e+01 -6.655714e+00
vertex 1.538993e+02 -4.253148e+01 -6.655714e+00
endloop
endfacet
facet normal -3.749632e-03 9.334368e-04 -4.643716e-04
outer loop
vertex 1.539137e+02 -4.240901e+01 -6.594479e+00
vertex 1.539213e+02 -4.240901e+01 -6.655714e+00
vertex 1.539061e+02 -4.247025e+01 -6.655714e+00
endloop
endfacet
facet normal -3.751033e-03 1.231501e-03 -7.622538e-04
outer loop
vertex 1.539061e+02 -4.247025e+01 -6.655714e+00
vertex 1.538936e+02 -4.247027e+01 -6.594479e+00
vertex 1.539137e+02 -4.240901e+01 -6.594479e+00
endloop
endfacet
facet normal -3.748259e-03 8.044998e-04 -4.439508e-04
outer loop
vertex 1.538864e+02 -4.247025e+01 -6.533243e+00
vertex 1.538936e+02 -4.247027e+01 -6.594479e+00
vertex 1.538805e+02 -4.253148e+01 -6.594479e+00
endloop
endfacet
facet normal -3.749661e-03 7.073245e-04 -3.466436e-04
outer loop
vertex 1.538864e+02 -4.247025e+01 -6.533243e+00
vertex 1.538805e+02 -4.253148e+01 -6.594479e+00
vertex 1.538748e+02 -4.253148e+01 -6.533243e+00
endloop
endfacet
facet normal -2.149538e-03 4.438298e-04 -2.545887e-04
outer loop
vertex 1.538936e+02 -4.243514e+01 -6.533243e+00
vertex 1.538936e+02 -4.247027e+01 -6.594479e+00
vertex 1.538864e+02 -4.247025e+01 -6.533243e+00
endloop
endfacet
facet normal -1.600123e-03 4.036515e-04 -3.532681e-04
outer loop
vertex 1.539002e+02 -4.240901e+01 -6.533243e+00
vertex 1.539137e+02 -4.240901e+01 -6.594479e+00
vertex 1.538936e+02 -4.243514e+01 -6.533243e+00
endloop
endfacet
facet normal -3.751062e-03 1.231511e-03 -7.064166e-04
outer loop
vertex 1.538936e+02 -4.243514e+01 -6.533243e+00
vertex 1.539137e+02 -4.240901e+01 -6.594479e+00
vertex 1.538936e+02 -4.247027e+01 -6.594479e+00
endloop
endfacet
facet normal -2.443381e-03 -3.327296e-03 -9.132782e-06
outer loop
vertex 1.539003e+02 -4.259272e+01 -6.472008e+00
vertex 1.539005e+02 -4.259272e+01 -6.533243e+00
vertex 1.539548e+02 -4.263262e+01 -6.533243e+00
endloop
endfacet
facet normal -2.636795e-03 -3.341311e-03 -1.723487e-04
outer loop
vertex 1.539548e+02 -4.263262e+01 -6.533243e+00
vertex 1.539548e+02 -4.263578e+01 -6.472008e+00
vertex 1.539003e+02 -4.259272e+01 -6.472008e+00
endloop
endfacet
facet normal -3.214704e-03 -1.151145e-03 2.611435e-04
outer loop
vertex 1.538798e+02 -4.253148e+01 -6.472008e+00
vertex 1.538748e+02 -4.253148e+01 -6.533243e+00
vertex 1.538936e+02 -4.258398e+01 -6.533243e+00
endloop
endfacet
facet normal -3.126640e-03 -8.465403e-04 1.988153e-05
outer loop
vertex 1.538936e+02 -4.258398e+01 -6.533243e+00
vertex 1.538936e+02 -4.258254e+01 -6.472008e+00
vertex 1.538798e+02 -4.253148e+01 -6.472008e+00
endloop
endfacet
facet normal -6.232256e-04 -4.083202e-04 9.589654e-06
outer loop
vertex 1.538936e+02 -4.258254e+01 -6.472008e+00
vertex 1.538936e+02 -4.258398e+01 -6.533243e+00
vertex 1.539003e+02 -4.259272e+01 -6.472008e+00
endloop
endfacet
facet normal -5.351611e-04 -4.223358e-04 -2.000306e-06
outer loop
vertex 1.539003e+02 -4.259272e+01 -6.472008e+00
vertex 1.538936e+02 -4.258398e+01 -6.533243e+00
vertex 1.539005e+02 -4.259272e+01 -6.533243e+00
endloop
endfacet
facet normal -2.636816e-03 -3.341337e-03 8.002846e-04
outer loop
vertex 1.539189e+02 -4.259272e+01 -6.410773e+00
vertex 1.539003e+02 -4.259272e+01 -6.472008e+00
vertex 1.539548e+02 -4.263578e+01 -6.472008e+00
endloop
endfacet
facet normal -2.388972e-03 -2.203265e-03 1.456261e-04
outer loop
vertex 1.539548e+02 -4.263578e+01 -6.472008e+00
vertex 1.539548e+02 -4.263173e+01 -6.410773e+00
vertex 1.539189e+02 -4.259272e+01 -6.410773e+00
endloop
endfacet
facet normal -2.403870e-03 -6.508497e-04 7.058732e-04
outer loop
vertex 1.538936e+02 -4.258254e+01 -6.472008e+00
vertex 1.538936e+02 -4.253148e+01 -6.424929e+00
vertex 1.538798e+02 -4.253148e+01 -6.472008e+00
endloop
endfacet
facet normal -8.668674e-04 -2.846898e-04 3.148954e-04
outer loop
vertex 1.538988e+02 -4.253148e+01 -6.410773e+00
vertex 1.538936e+02 -4.253148e+01 -6.424929e+00
vertex 1.539189e+02 -4.259272e+01 -6.410773e+00
endloop
endfacet
facet normal -3.605822e-03 -1.188914e-03 1.289426e-03
outer loop
vertex 1.539189e+02 -4.259272e+01 -6.410773e+00
vertex 1.538936e+02 -4.253148e+01 -6.424929e+00
vertex 1.538936e+02 -4.258254e+01 -6.472008e+00
endloop
endfacet
facet normal -6.232305e-04 -4.083235e-04 1.891530e-04
outer loop
vertex 1.539189e+02 -4.259272e+01 -6.410773e+00
vertex 1.538936e+02 -4.258254e+01 -6.472008e+00
vertex 1.539003e+02 -4.259272e+01 -6.472008e+00
endloop
endfacet
facet normal -1.306251e-03 -1.580956e-03 -8.154754e-05
outer loop
vertex 1.539548e+02 -4.263578e+01 -6.472008e+00
vertex 1.539548e+02 -4.263262e+01 -6.533243e+00
vertex 1.539807e+02 -4.265395e+01 -6.533243e+00
endloop
endfacet
facet normal -1.112836e-03 -1.354838e-03 -6.710691e-05
outer loop
vertex 1.539807e+02 -4.265395e+01 -6.533243e+00
vertex 1.539770e+02 -4.265395e+01 -6.472008e+00
vertex 1.539548e+02 -4.263578e+01 -6.472008e+00
endloop
endfacet
facet normal -1.112845e-03 -1.354849e-03 8.954958e-05
outer loop
vertex 1.539548e+02 -4.263173e+01 -6.410773e+00
vertex 1.539548e+02 -4.263578e+01 -6.472008e+00
vertex 1.539770e+02 -4.265395e+01 -6.472008e+00
endloop
endfacet
facet normal -1.360689e-03 -1.580034e-03 8.171337e-05
outer loop
vertex 1.539770e+02 -4.265395e+01 -6.472008e+00
vertex 1.539807e+02 -4.265395e+01 -6.410773e+00
vertex 1.539548e+02 -4.263173e+01 -6.410773e+00
endloop
endfacet
facet normal -3.749632e-03 8.325247e-04 4.298007e-04
outer loop
vertex 1.538934e+02 -4.247025e+01 -6.472008e+00
vertex 1.538864e+02 -4.247025e+01 -6.533243e+00
vertex 1.538798e+02 -4.253148e+01 -6.472008e+00
endloop
endfacet
facet normal -3.749632e-03 7.073190e-04 3.045979e-04
outer loop
vertex 1.538798e+02 -4.253148e+01 -6.472008e+00
vertex 1.538864e+02 -4.247025e+01 -6.533243e+00
vertex 1.538748e+02 -4.253148e+01 -6.533243e+00
endloop
endfacet
facet normal -2.149521e-03 4.438263e-04 2.321933e-04
outer loop
vertex 1.538936e+02 -4.246718e+01 -6.472008e+00
vertex 1.538936e+02 -4.243514e+01 -6.533243e+00
vertex 1.538864e+02 -4.247025e+01 -6.533243e+00
endloop
endfacet
facet normal -1.878086e-04 1.401556e-05 2.152752e-05
outer loop
vertex 1.538864e+02 -4.247025e+01 -6.533243e+00
vertex 1.538934e+02 -4.247025e+01 -6.472008e+00
vertex 1.538936e+02 -4.246718e+01 -6.472008e+00
endloop
endfacet
facet normal -1.600111e-03 4.036484e-04 -5.582115e-05
outer loop
vertex 1.538981e+02 -4.240901e+01 -6.472008e+00
vertex 1.539002e+02 -4.240901e+01 -6.533243e+00
vertex 1.538936e+02 -4.243514e+01 -6.533243e+00
endloop
endfacet
facet normal -3.561823e-03 2.728364e-04 1.427378e-04
outer loop
vertex 1.538936e+02 -4.243514e+01 -6.533243e+00
vertex 1.538936e+02 -4.246718e+01 -6.472008e+00
vertex 1.538981e+02 -4.240901e+01 -6.472008e+00
endloop
endfacet
facet normal -2.882847e-03 6.383710e-04 8.465205e-04
outer loop
vertex 1.538798e+02 -4.253148e+01 -6.472008e+00
vertex 1.538936e+02 -4.253148e+01 -6.424929e+00
vertex 1.538936e+02 -4.247025e+01 -6.471106e+00
endloop
endfacet
facet normal -5.527261e-05 1.227209e-05 1.401524e-05
outer loop
vertex 1.538936e+02 -4.247025e+01 -6.471106e+00
vertex 1.538934e+02 -4.247025e+01 -6.472008e+00
vertex 1.538798e+02 -4.253148e+01 -6.472008e+00
endloop
endfacet
facet normal -3.694388e-03 7.630858e-04 1.011900e-03
outer loop
vertex 1.539101e+02 -4.247025e+01 -6.410773e+00
vertex 1.538936e+02 -4.247025e+01 -6.471106e+00
vertex 1.538936e+02 -4.253148e+01 -6.424929e+00
endloop
endfacet
facet normal -8.668134e-04 1.611370e-04 3.148757e-04
outer loop
vertex 1.538936e+02 -4.253148e+01 -6.424929e+00
vertex 1.538988e+02 -4.253148e+01 -6.410773e+00
vertex 1.539101e+02 -4.247025e+01 -6.410773e+00
endloop
endfacet
facet normal -2.768451e-06 2.066008e-07 7.019844e-07
outer loop
vertex 1.538934e+02 -4.247025e+01 -6.472008e+00
vertex 1.538936e+02 -4.247025e+01 -6.471106e+00
vertex 1.538936e+02 -4.246718e+01 -6.472008e+00
endloop
endfacet
facet normal -3.561851e-03 2.728385e-04 7.588556e-04
outer loop
vertex 1.539111e+02 -4.240901e+01 -6.410773e+00
vertex 1.538981e+02 -4.240901e+01 -6.472008e+00
vertex 1.538936e+02 -4.246718e+01 -6.472008e+00
endloop
endfacet
facet normal -3.749661e-03 5.980022e-05 1.014896e-03
outer loop
vertex 1.539111e+02 -4.240901e+01 -6.410773e+00
vertex 1.538936e+02 -4.246718e+01 -6.472008e+00
vertex 1.539101e+02 -4.247025e+01 -6.410773e+00
endloop
endfacet
facet normal -1.850416e-04 1.491664e-05 5.068327e-05
outer loop
vertex 1.539101e+02 -4.247025e+01 -6.410773e+00
vertex 1.538936e+02 -4.246718e+01 -6.472008e+00
vertex 1.538936e+02 -4.247025e+01 -6.471106e+00
endloop
endfacet
facet normal -3.749865e-03 9.680085e-04 -4.102049e-04
outer loop
vertex 1.539304e+02 -4.234777e+01 -6.594479e+00
vertex 1.539371e+02 -4.234777e+01 -6.655714e+00
vertex 1.539213e+02 -4.240901e+01 -6.655714e+00
endloop
endfacet
facet normal -3.749865e-03 1.022202e-03 -4.644006e-04
outer loop
vertex 1.539213e+02 -4.240901e+01 -6.655714e+00
vertex 1.539137e+02 -4.240901e+01 -6.594479e+00
vertex 1.539304e+02 -4.234777e+01 -6.594479e+00
endloop
endfacet
facet normal -3.749632e-03 -9.343712e-05 -5.624783e-04
outer loop
vertex 1.539289e+02 -4.228654e+01 -6.594479e+00
vertex 1.539381e+02 -4.228654e+01 -6.655714e+00
vertex 1.539304e+02 -4.234777e+01 -6.594479e+00
endloop
endfacet
facet normal -3.749632e-03 5.886538e-05 -4.101794e-04
outer loop
vertex 1.539304e+02 -4.234777e+01 -6.594479e+00
vertex 1.539381e+02 -4.228654e+01 -6.655714e+00
vertex 1.539371e+02 -4.234777e+01 -6.655714e+00
endloop
endfacet
facet normal -3.749894e-03 1.022210e-03 -6.662326e-04
outer loop
vertex 1.539195e+02 -4.234777e+01 -6.533243e+00
vertex 1.539304e+02 -4.234777e+01 -6.594479e+00
vertex 1.539137e+02 -4.240901e+01 -6.594479e+00
endloop
endfacet
facet normal -3.749894e-03 1.183858e-03 -8.278851e-04
outer loop
vertex 1.539137e+02 -4.240901e+01 -6.594479e+00
vertex 1.539002e+02 -4.240901e+01 -6.533243e+00
vertex 1.539195e+02 -4.234777e+01 -6.533243e+00
endloop
endfacet
facet normal -3.749661e-03 -9.343785e-05 -3.148757e-04
outer loop
vertex 1.539238e+02 -4.228654e+01 -6.533243e+00
vertex 1.539289e+02 -4.228654e+01 -6.594479e+00
vertex 1.539304e+02 -4.234777e+01 -6.594479e+00
endloop
endfacet
facet normal -3.749661e-03 2.578884e-04 -6.661911e-04
outer loop
vertex 1.539304e+02 -4.234777e+01 -6.594479e+00
vertex 1.539195e+02 -4.234777e+01 -6.533243e+00
vertex 1.539238e+02 -4.228654e+01 -6.533243e+00
endloop
endfacet
facet normal -3.749865e-03 -1.262335e-03 -7.017401e-04
outer loop
vertex 1.539083e+02 -4.222530e+01 -6.594479e+00
vertex 1.539197e+02 -4.222530e+01 -6.655714e+00
vertex 1.539289e+02 -4.228654e+01 -6.594479e+00
endloop
endfacet
facet normal -3.749865e-03 -1.123114e-03 -5.625134e-04
outer loop
vertex 1.539289e+02 -4.228654e+01 -6.594479e+00
vertex 1.539197e+02 -4.222530e+01 -6.655714e+00
vertex 1.539381e+02 -4.228654e+01 -6.655714e+00
endloop
endfacet
facet normal -1.151379e-03 -8.979307e-04 -2.154661e-04
outer loop
vertex 1.539197e+02 -4.222530e+01 -6.655714e+00
vertex 1.539083e+02 -4.222530e+01 -6.594479e+00
vertex 1.538936e+02 -4.220650e+01 -6.594479e+00
endloop
endfacet
facet normal -3.749894e-03 -1.277295e-03 -3.298459e-04
outer loop
vertex 1.539029e+02 -4.222530e+01 -6.533243e+00
vertex 1.539083e+02 -4.222530e+01 -6.594479e+00
vertex 1.539238e+02 -4.228654e+01 -6.533243e+00
endloop
endfacet
facet normal -3.749894e-03 -1.262345e-03 -3.148954e-04
outer loop
vertex 1.539238e+02 -4.228654e+01 -6.533243e+00
vertex 1.539083e+02 -4.222530e+01 -6.594479e+00
vertex 1.539289e+02 -4.228654e+01 -6.594479e+00
endloop
endfacet
facet normal -1.151388e-03 -8.979377e-04 -1.068407e-04
outer loop
vertex 1.538936e+02 -4.221379e+01 -6.533243e+00
vertex 1.538936e+02 -4.220650e+01 -6.594479e+00
vertex 1.539083e+02 -4.222530e+01 -6.594479e+00
endloop
endfacet
facet normal -7.052221e-04 -5.681021e-04 -6.203231e-05
outer loop
vertex 1.539083e+02 -4.222530e+01 -6.594479e+00
vertex 1.539029e+02 -4.222530e+01 -6.533243e+00
vertex 1.538936e+02 -4.221379e+01 -6.533243e+00
endloop
endfacet
facet normal -3.749865e-03 1.183848e-03 -6.596918e-04
outer loop
vertex 1.539088e+02 -4.234777e+01 -6.472008e+00
vertex 1.539195e+02 -4.234777e+01 -6.533243e+00
vertex 1.539002e+02 -4.240901e+01 -6.533243e+00
endloop
endfacet
facet normal -3.749865e-03 6.549942e-04 -1.308171e-04
outer loop
vertex 1.539002e+02 -4.240901e+01 -6.533243e+00
vertex 1.538981e+02 -4.240901e+01 -6.472008e+00
vertex 1.539088e+02 -4.234777e+01 -6.472008e+00
endloop
endfacet
facet normal -3.749632e-03 2.578865e-04 -4.036389e-04
outer loop
vertex 1.539172e+02 -4.228654e+01 -6.472008e+00
vertex 1.539238e+02 -4.228654e+01 -6.533243e+00
vertex 1.539195e+02 -4.234777e+01 -6.533243e+00
endloop
endfacet
facet normal -3.749632e-03 5.139041e-04 -6.596507e-04
outer loop
vertex 1.539195e+02 -4.234777e+01 -6.533243e+00
vertex 1.539088e+02 -4.234777e+01 -6.472008e+00
vertex 1.539172e+02 -4.228654e+01 -6.472008e+00
endloop
endfacet
facet normal -3.749894e-03 1.027816e-05 1.541773e-04
outer loop
vertex 1.539113e+02 -4.234777e+01 -6.410773e+00
vertex 1.539088e+02 -4.234777e+01 -6.472008e+00
vertex 1.539111e+02 -4.240901e+01 -6.410773e+00
endloop
endfacet
facet normal -3.749894e-03 6.549993e-04 7.989185e-04
outer loop
vertex 1.539111e+02 -4.240901e+01 -6.410773e+00
vertex 1.539088e+02 -4.234777e+01 -6.472008e+00
vertex 1.538981e+02 -4.240901e+01 -6.472008e+00
endloop
endfacet
facet normal -3.749661e-03 5.139082e-04 -2.055569e-04
outer loop
vertex 1.539138e+02 -4.228654e+01 -6.410773e+00
vertex 1.539172e+02 -4.228654e+01 -6.472008e+00
vertex 1.539088e+02 -4.234777e+01 -6.472008e+00
endloop
endfacet
facet normal -3.749661e-03 1.541724e-04 1.541676e-04
outer loop
vertex 1.539088e+02 -4.234777e+01 -6.472008e+00
vertex 1.539113e+02 -4.234777e+01 -6.410773e+00
vertex 1.539138e+02 -4.228654e+01 -6.410773e+00
endloop
endfacet
facet normal -3.749865e-03 -1.006318e-03 -1.326859e-04
outer loop
vertex 1.539007e+02 -4.222530e+01 -6.472008e+00
vertex 1.539029e+02 -4.222530e+01 -6.533243e+00
vertex 1.539172e+02 -4.228654e+01 -6.472008e+00
endloop
endfacet
facet normal -3.749865e-03 -1.277285e-03 -4.036641e-04
outer loop
vertex 1.539172e+02 -4.228654e+01 -6.472008e+00
vertex 1.539029e+02 -4.222530e+01 -6.533243e+00
vertex 1.539238e+02 -4.228654e+01 -6.533243e+00
endloop
endfacet
facet normal -7.052167e-04 -5.680977e-04 -1.659803e-05
outer loop
vertex 1.538936e+02 -4.221558e+01 -6.472008e+00
vertex 1.538936e+02 -4.221379e+01 -6.533243e+00
vertex 1.539029e+02 -4.222530e+01 -6.533243e+00
endloop
endfacet
facet normal -5.956616e-04 -4.354170e-04 -2.107699e-05
outer loop
vertex 1.539029e+02 -4.222530e+01 -6.533243e+00
vertex 1.539007e+02 -4.222530e+01 -6.472008e+00
vertex 1.538936e+02 -4.221558e+01 -6.472008e+00
endloop
endfacet
facet normal -3.749894e-03 -7.876811e-04 1.308171e-05
outer loop
vertex 1.539009e+02 -4.222530e+01 -6.410773e+00
vertex 1.539007e+02 -4.222530e+01 -6.472008e+00
vertex 1.539138e+02 -4.228654e+01 -6.410773e+00
endloop
endfacet
facet normal -3.749894e-03 -1.006326e-03 -2.055697e-04
outer loop
vertex 1.539138e+02 -4.228654e+01 -6.410773e+00
vertex 1.539007e+02 -4.222530e+01 -6.472008e+00
vertex 1.539172e+02 -4.228654e+01 -6.472008e+00
endloop
endfacet
facet normal -8.315968e-04 -4.485017e-04 2.821907e-05
outer loop
vertex 1.538936e+02 -4.221172e+01 -6.410773e+00
vertex 1.538936e+02 -4.221558e+01 -6.472008e+00
vertex 1.539009e+02 -4.222530e+01 -6.410773e+00
endloop
endfacet
facet normal -5.956663e-04 -4.354204e-04 2.078013e-06
outer loop
vertex 1.539009e+02 -4.222530e+01 -6.410773e+00
vertex 1.538936e+02 -4.221558e+01 -6.472008e+00
vertex 1.539007e+02 -4.222530e+01 -6.472008e+00
endloop
endfacet
facet normal -2.388953e-03 -2.203247e-03 7.030372e-04
outer loop
vertex 1.539369e+02 -4.259272e+01 -6.349538e+00
vertex 1.539189e+02 -4.259272e+01 -6.410773e+00
vertex 1.539548e+02 -4.263173e+01 -6.410773e+00
endloop
endfacet
facet normal -1.580255e-03 -1.099755e-03 2.371831e-04
outer loop
vertex 1.539548e+02 -4.263173e+01 -6.410773e+00
vertex 1.539548e+02 -4.261852e+01 -6.349538e+00
vertex 1.539369e+02 -4.259272e+01 -6.349538e+00
endloop
endfacet
facet normal -3.749865e-03 -1.231501e-03 1.239959e-03
outer loop
vertex 1.539190e+02 -4.253148e+01 -6.349538e+00
vertex 1.538988e+02 -4.253148e+01 -6.410773e+00
vertex 1.539189e+02 -4.259272e+01 -6.410773e+00
endloop
endfacet
facet normal -3.749865e-03 -1.095083e-03 1.103535e-03
outer loop
vertex 1.539189e+02 -4.259272e+01 -6.410773e+00
vertex 1.539369e+02 -4.259272e+01 -6.349538e+00
vertex 1.539190e+02 -4.253148e+01 -6.349538e+00
endloop
endfacet
facet normal -1.170767e-03 -8.614903e-04 7.439288e-05
outer loop
vertex 1.539408e+02 -4.259272e+01 -6.288303e+00
vertex 1.539369e+02 -4.259272e+01 -6.349538e+00
vertex 1.539548e+02 -4.261184e+01 -6.288303e+00
endloop
endfacet
facet normal -1.580255e-03 -1.099755e-03 1.200988e-04
outer loop
vertex 1.539548e+02 -4.261184e+01 -6.288303e+00
vertex 1.539369e+02 -4.259272e+01 -6.349538e+00
vertex 1.539548e+02 -4.261852e+01 -6.349538e+00
endloop
endfacet
facet normal -3.749865e-03 -1.095083e-03 3.447964e-04
outer loop
vertex 1.539246e+02 -4.253148e+01 -6.288303e+00
vertex 1.539190e+02 -4.253148e+01 -6.349538e+00
vertex 1.539369e+02 -4.259272e+01 -6.349538e+00
endloop
endfacet
facet normal -3.749865e-03 -9.885647e-04 2.382739e-04
outer loop
vertex 1.539369e+02 -4.259272e+01 -6.349538e+00
vertex 1.539408e+02 -4.259272e+01 -6.288303e+00
vertex 1.539246e+02 -4.253148e+01 -6.288303e+00
endloop
endfacet
facet normal -2.169376e-03 -2.139710e-03 4.614692e-04
outer loop
vertex 1.539548e+02 -4.261852e+01 -6.349538e+00
vertex 1.539548e+02 -4.263173e+01 -6.410773e+00
vertex 1.539898e+02 -4.265395e+01 -6.349538e+00
endloop
endfacet
facet normal -1.360678e-03 -1.580022e-03 2.030967e-04
outer loop
vertex 1.539898e+02 -4.265395e+01 -6.349538e+00
vertex 1.539548e+02 -4.263173e+01 -6.410773e+00
vertex 1.539807e+02 -4.265395e+01 -6.410773e+00
endloop
endfacet
facet normal -2.169376e-03 -2.139710e-03 2.336671e-04
outer loop
vertex 1.539548e+02 -4.261184e+01 -6.288303e+00
vertex 1.539548e+02 -4.261852e+01 -6.349538e+00
vertex 1.539898e+02 -4.265395e+01 -6.349538e+00
endloop
endfacet
facet normal -2.578865e-03 -2.623715e-03 3.328733e-04
outer loop
vertex 1.539898e+02 -4.265395e+01 -6.349538e+00
vertex 1.539977e+02 -4.265395e+01 -6.288303e+00
vertex 1.539548e+02 -4.261184e+01 -6.288303e+00
endloop
endfacet
facet normal -3.749632e-03 6.727473e-05 6.101301e-04
outer loop
vertex 1.539201e+02 -4.247025e+01 -6.349538e+00
vertex 1.539101e+02 -4.247025e+01 -6.410773e+00
vertex 1.539190e+02 -4.253148e+01 -6.349538e+00
endloop
endfacet
facet normal -3.749632e-03 6.970409e-04 1.239882e-03
outer loop
vertex 1.539190e+02 -4.253148e+01 -6.349538e+00
vertex 1.539101e+02 -4.247025e+01 -6.410773e+00
vertex 1.538988e+02 -4.253148e+01 -6.410773e+00
endloop
endfacet
facet normal -3.749632e-03 5.979976e-05 3.989672e-04
outer loop
vertex 1.539176e+02 -4.240901e+01 -6.349538e+00
vertex 1.539111e+02 -4.240901e+01 -6.410773e+00
vertex 1.539101e+02 -4.247025e+01 -6.410773e+00
endloop
endfacet
facet normal -3.749632e-03 -1.513681e-04 6.101301e-04
outer loop
vertex 1.539101e+02 -4.247025e+01 -6.410773e+00
vertex 1.539201e+02 -4.247025e+01 -6.349538e+00
vertex 1.539176e+02 -4.240901e+01 -6.349538e+00
endloop
endfacet
facet normal -3.749632e-03 6.727473e-05 1.466929e-04
outer loop
vertex 1.539225e+02 -4.247025e+01 -6.288303e+00
vertex 1.539201e+02 -4.247025e+01 -6.349538e+00
vertex 1.539190e+02 -4.253148e+01 -6.349538e+00
endloop
endfacet
facet normal -3.749632e-03 -1.308120e-04 3.447749e-04
outer loop
vertex 1.539190e+02 -4.253148e+01 -6.349538e+00
vertex 1.539246e+02 -4.253148e+01 -6.288303e+00
vertex 1.539225e+02 -4.247025e+01 -6.288303e+00
endloop
endfacet
facet normal -3.749632e-03 -1.513681e-04 -5.325791e-05
outer loop
vertex 1.539168e+02 -4.240901e+01 -6.288303e+00
vertex 1.539176e+02 -4.240901e+01 -6.349538e+00
vertex 1.539201e+02 -4.247025e+01 -6.349538e+00
endloop
endfacet
facet normal -3.749632e-03 -3.513236e-04 1.466929e-04
outer loop
vertex 1.539201e+02 -4.247025e+01 -6.349538e+00
vertex 1.539225e+02 -4.247025e+01 -6.288303e+00
vertex 1.539168e+02 -4.240901e+01 -6.288303e+00
endloop
endfacet
facet normal -1.131766e-03 -9.979162e-04 -4.117435e-05
outer loop
vertex 1.539386e+02 -4.259272e+01 -6.227067e+00
vertex 1.539408e+02 -4.259272e+01 -6.288303e+00
vertex 1.539548e+02 -4.261120e+01 -6.227067e+00
endloop
endfacet
facet normal -1.170776e-03 -8.614970e-04 8.962466e-06
outer loop
vertex 1.539548e+02 -4.261120e+01 -6.227067e+00
vertex 1.539408e+02 -4.259272e+01 -6.288303e+00
vertex 1.539548e+02 -4.261184e+01 -6.288303e+00
endloop
endfacet
facet normal -3.749894e-03 -1.064257e-03 -2.121105e-04
outer loop
vertex 1.539212e+02 -4.253148e+01 -6.227067e+00
vertex 1.539246e+02 -4.253148e+01 -6.288303e+00
vertex 1.539386e+02 -4.259272e+01 -6.227067e+00
endloop
endfacet
facet normal -3.749894e-03 -9.885724e-04 -1.364235e-04
outer loop
vertex 1.539386e+02 -4.259272e+01 -6.227067e+00
vertex 1.539246e+02 -4.253148e+01 -6.288303e+00
vertex 1.539408e+02 -4.259272e+01 -6.288303e+00
endloop
endfacet
facet normal -1.131757e-03 -9.979084e-04 1.051920e-04
outer loop
vertex 1.539442e+02 -4.259272e+01 -6.165833e+00
vertex 1.539386e+02 -4.259272e+01 -6.227067e+00
vertex 1.539548e+02 -4.261120e+01 -6.227067e+00
endloop
endfacet
facet normal -9.306337e-04 -6.493880e-04 3.483117e-05
outer loop
vertex 1.539548e+02 -4.261120e+01 -6.227067e+00
vertex 1.539548e+02 -4.260791e+01 -6.165833e+00
vertex 1.539442e+02 -4.259272e+01 -6.165833e+00
endloop
endfacet
facet normal -3.749865e-03 -1.064249e-03 4.008609e-04
outer loop
vertex 1.539277e+02 -4.253148e+01 -6.165833e+00
vertex 1.539212e+02 -4.253148e+01 -6.227067e+00
vertex 1.539386e+02 -4.259272e+01 -6.227067e+00
endloop
endfacet
facet normal -3.749865e-03 -1.011924e-03 3.485340e-04
outer loop
vertex 1.539386e+02 -4.259272e+01 -6.227067e+00
vertex 1.539442e+02 -4.259272e+01 -6.165833e+00
vertex 1.539277e+02 -4.253148e+01 -6.165833e+00
endloop
endfacet
facet normal -2.578885e-03 -2.623735e-03 2.729567e-05
outer loop
vertex 1.539548e+02 -4.261120e+01 -6.227067e+00
vertex 1.539548e+02 -4.261184e+01 -6.288303e+00
vertex 1.539977e+02 -4.265395e+01 -6.288303e+00
endloop
endfacet
facet normal -2.617895e-03 -3.077843e-03 3.170340e-04
outer loop
vertex 1.539977e+02 -4.265395e+01 -6.288303e+00
vertex 1.540051e+02 -4.265395e+01 -6.227067e+00
vertex 1.539548e+02 -4.261120e+01 -6.227067e+00
endloop
endfacet
facet normal -2.818998e-03 -2.755461e-03 1.477944e-04
outer loop
vertex 1.539548e+02 -4.260791e+01 -6.165833e+00
vertex 1.539548e+02 -4.261120e+01 -6.227067e+00
vertex 1.539998e+02 -4.265395e+01 -6.165833e+00
endloop
endfacet
facet normal -2.617874e-03 -3.077819e-03 -2.250550e-04
outer loop
vertex 1.539998e+02 -4.265395e+01 -6.165833e+00
vertex 1.539548e+02 -4.261120e+01 -6.227067e+00
vertex 1.540051e+02 -4.265395e+01 -6.227067e+00
endloop
endfacet
facet normal -3.749661e-03 -1.308130e-04 1.560363e-04
outer loop
vertex 1.539250e+02 -4.247025e+01 -6.227067e+00
vertex 1.539225e+02 -4.247025e+01 -6.288303e+00
vertex 1.539246e+02 -4.253148e+01 -6.288303e+00
endloop
endfacet
facet normal -3.749661e-03 2.373321e-04 -2.120973e-04
outer loop
vertex 1.539246e+02 -4.253148e+01 -6.288303e+00
vertex 1.539212e+02 -4.253148e+01 -6.227067e+00
vertex 1.539250e+02 -4.247025e+01 -6.227067e+00
endloop
endfacet
facet normal -3.749661e-03 -3.513263e-04 1.289402e-04
outer loop
vertex 1.539189e+02 -4.240901e+01 -6.227067e+00
vertex 1.539168e+02 -4.240901e+01 -6.288303e+00
vertex 1.539225e+02 -4.247025e+01 -6.288303e+00
endloop
endfacet
facet normal -3.749661e-03 -3.784233e-04 1.560363e-04
outer loop
vertex 1.539225e+02 -4.247025e+01 -6.288303e+00
vertex 1.539250e+02 -4.247025e+01 -6.227067e+00
vertex 1.539189e+02 -4.240901e+01 -6.227067e+00
endloop
endfacet
facet normal -3.749632e-03 8.035592e-05 2.438652e-04
outer loop
vertex 1.539290e+02 -4.247025e+01 -6.165833e+00
vertex 1.539250e+02 -4.247025e+01 -6.227067e+00
vertex 1.539277e+02 -4.253148e+01 -6.165833e+00
endloop
endfacet
facet normal -3.749632e-03 2.373303e-04 4.008359e-04
outer loop
vertex 1.539277e+02 -4.253148e+01 -6.165833e+00
vertex 1.539250e+02 -4.247025e+01 -6.227067e+00
vertex 1.539212e+02 -4.253148e+01 -6.227067e+00
endloop
endfacet
facet normal -3.749632e-03 -3.737485e-04 2.485369e-04
outer loop
vertex 1.539229e+02 -4.240901e+01 -6.165833e+00
vertex 1.539189e+02 -4.240901e+01 -6.227067e+00
vertex 1.539290e+02 -4.247025e+01 -6.165833e+00
endloop
endfacet
facet normal -3.749632e-03 -3.784203e-04 2.438652e-04
outer loop
vertex 1.539290e+02 -4.247025e+01 -6.165833e+00
vertex 1.539189e+02 -4.240901e+01 -6.227067e+00
vertex 1.539250e+02 -4.247025e+01 -6.227067e+00
endloop
endfacet
facet normal -3.749865e-03 1.027808e-05 2.691094e-04
outer loop
vertex 1.539157e+02 -4.234777e+01 -6.349538e+00
vertex 1.539113e+02 -4.234777e+01 -6.410773e+00
vertex 1.539111e+02 -4.240901e+01 -6.410773e+00
endloop
endfacet
facet normal -3.749865e-03 -1.195995e-04 3.989920e-04
outer loop
vertex 1.539111e+02 -4.240901e+01 -6.410773e+00
vertex 1.539176e+02 -4.240901e+01 -6.349538e+00
vertex 1.539157e+02 -4.234777e+01 -6.349538e+00
endloop
endfacet
facet normal -3.749632e-03 1.541713e-04 -4.765182e-05
outer loop
vertex 1.539130e+02 -4.228654e+01 -6.349538e+00
vertex 1.539138e+02 -4.228654e+01 -6.410773e+00
vertex 1.539113e+02 -4.234777e+01 -6.410773e+00
endloop
endfacet
facet normal -3.749632e-03 -1.625806e-04 2.690926e-04
outer loop
vertex 1.539113e+02 -4.234777e+01 -6.410773e+00
vertex 1.539157e+02 -4.234777e+01 -6.349538e+00
vertex 1.539130e+02 -4.228654e+01 -6.349538e+00
endloop
endfacet
facet normal -3.749865e-03 -2.803114e-04 -2.139793e-04
outer loop
vertex 1.539122e+02 -4.234777e+01 -6.288303e+00
vertex 1.539157e+02 -4.234777e+01 -6.349538e+00
vertex 1.539168e+02 -4.240901e+01 -6.288303e+00
endloop
endfacet
facet normal -3.749865e-03 -1.195995e-04 -5.326123e-05
outer loop
vertex 1.539168e+02 -4.240901e+01 -6.288303e+00
vertex 1.539157e+02 -4.234777e+01 -6.349538e+00
vertex 1.539176e+02 -4.240901e+01 -6.349538e+00
endloop
endfacet
facet normal -3.749632e-03 -3.214237e-04 -3.728054e-04
outer loop
vertex 1.539069e+02 -4.228654e+01 -6.288303e+00
vertex 1.539130e+02 -4.228654e+01 -6.349538e+00
vertex 1.539122e+02 -4.234777e+01 -6.288303e+00
endloop
endfacet
facet normal -3.749632e-03 -1.625806e-04 -2.139660e-04
outer loop
vertex 1.539122e+02 -4.234777e+01 -6.288303e+00
vertex 1.539130e+02 -4.228654e+01 -6.349538e+00
vertex 1.539157e+02 -4.234777e+01 -6.349538e+00
endloop
endfacet
facet normal -3.749865e-03 -9.717460e-04 -2.317331e-04
outer loop
vertex 1.538972e+02 -4.222530e+01 -6.349538e+00
vertex 1.539009e+02 -4.222530e+01 -6.410773e+00
vertex 1.539130e+02 -4.228654e+01 -6.349538e+00
endloop
endfacet
facet normal -3.749865e-03 -7.876749e-04 -4.765479e-05
outer loop
vertex 1.539130e+02 -4.228654e+01 -6.349538e+00
vertex 1.539009e+02 -4.222530e+01 -6.410773e+00
vertex 1.539138e+02 -4.228654e+01 -6.410773e+00
endloop
endfacet
facet normal -8.315904e-04 -4.484982e-04 -4.732981e-05
outer loop
vertex 1.538936e+02 -4.221819e+01 -6.349538e+00
vertex 1.538936e+02 -4.221172e+01 -6.410773e+00
vertex 1.539009e+02 -4.222530e+01 -6.410773e+00
endloop
endfacet
facet normal -4.358842e-04 -2.167741e-04 -2.693664e-05
outer loop
vertex 1.539009e+02 -4.222530e+01 -6.410773e+00
vertex 1.538972e+02 -4.222530e+01 -6.349538e+00
vertex 1.538936e+02 -4.221819e+01 -6.349538e+00
endloop
endfacet
facet normal -2.183416e-04 -7.656799e-05 -2.321735e-05
outer loop
vertex 1.538908e+02 -4.222530e+01 -6.288303e+00
vertex 1.538936e+02 -4.222530e+01 -6.315137e+00
vertex 1.538936e+02 -4.223344e+01 -6.288303e+00
endloop
endfacet
facet normal -1.424902e-03 -3.574538e-04 -1.083890e-04
outer loop
vertex 1.538936e+02 -4.223344e+01 -6.288303e+00
vertex 1.538936e+02 -4.222530e+01 -6.315137e+00
vertex 1.539069e+02 -4.228654e+01 -6.288303e+00
endloop
endfacet
facet normal -3.749865e-03 -9.790784e-04 -3.728286e-04
outer loop
vertex 1.539069e+02 -4.228654e+01 -6.288303e+00
vertex 1.538936e+02 -4.222530e+01 -6.315137e+00
vertex 1.539130e+02 -4.228654e+01 -6.349538e+00
endloop
endfacet
facet normal -2.106622e-03 -5.459134e-04 -2.167826e-04
outer loop
vertex 1.539130e+02 -4.228654e+01 -6.349538e+00
vertex 1.538936e+02 -4.222530e+01 -6.315137e+00
vertex 1.538972e+02 -4.222530e+01 -6.349538e+00
endloop
endfacet
facet normal -2.448736e-04 -1.217807e-04 -2.519879e-05
outer loop
vertex 1.538972e+02 -4.222530e+01 -6.349538e+00
vertex 1.538936e+02 -4.222530e+01 -6.315137e+00
vertex 1.538936e+02 -4.221819e+01 -6.349538e+00
endloop
endfacet
facet normal -3.749894e-03 -5.494145e-04 -1.401611e-04
outer loop
vertex 1.539099e+02 -4.234777e+01 -6.227067e+00
vertex 1.539122e+02 -4.234777e+01 -6.288303e+00
vertex 1.539189e+02 -4.240901e+01 -6.227067e+00
endloop
endfacet
facet normal -3.749894e-03 -2.803135e-04 1.289482e-04
outer loop
vertex 1.539189e+02 -4.240901e+01 -6.227067e+00
vertex 1.539122e+02 -4.234777e+01 -6.288303e+00
vertex 1.539168e+02 -4.240901e+01 -6.288303e+00
endloop
endfacet
facet normal -3.749661e-03 -5.494145e-04 -3.681337e-04
outer loop
vertex 1.539009e+02 -4.228654e+01 -6.227067e+00
vertex 1.539069e+02 -4.228654e+01 -6.288303e+00
vertex 1.539099e+02 -4.234777e+01 -6.227067e+00
endloop
endfacet
facet normal -3.749661e-03 -3.214262e-04 -1.401524e-04
outer loop
vertex 1.539099e+02 -4.234777e+01 -6.227067e+00
vertex 1.539069e+02 -4.228654e+01 -6.288303e+00
vertex 1.539122e+02 -4.234777e+01 -6.288303e+00
endloop
endfacet
facet normal -3.749865e-03 -5.494102e-04 5.513005e-05
outer loop
vertex 1.539108e+02 -4.234777e+01 -6.165833e+00
vertex 1.539099e+02 -4.234777e+01 -6.227067e+00
vertex 1.539189e+02 -4.240901e+01 -6.227067e+00
endloop
endfacet
facet normal -3.749865e-03 -7.428251e-04 2.485524e-04
outer loop
vertex 1.539189e+02 -4.240901e+01 -6.227067e+00
vertex 1.539229e+02 -4.240901e+01 -6.165833e+00
vertex 1.539108e+02 -4.234777e+01 -6.165833e+00
endloop
endfacet
facet normal -3.749632e-03 -8.689652e-04 -2.644209e-04
outer loop
vertex 1.538966e+02 -4.228654e+01 -6.165833e+00
vertex 1.539009e+02 -4.228654e+01 -6.227067e+00
vertex 1.539108e+02 -4.234777e+01 -6.165833e+00
endloop
endfacet
facet normal -3.749632e-03 -5.494103e-04 5.512661e-05
outer loop
vertex 1.539108e+02 -4.234777e+01 -6.165833e+00
vertex 1.539009e+02 -4.228654e+01 -6.227067e+00
vertex 1.539099e+02 -4.234777e+01 -6.227067e+00
endloop
endfacet
facet normal -4.982573e-04 -1.747288e-04 -3.886112e-05
outer loop
vertex 1.538860e+02 -4.222530e+01 -6.227067e+00
vertex 1.538908e+02 -4.222530e+01 -6.288303e+00
vertex 1.538936e+02 -4.223344e+01 -6.288303e+00
endloop
endfacet
facet normal -1.614139e-03 -4.671892e-04 -1.390290e-04
outer loop
vertex 1.538936e+02 -4.223344e+01 -6.288303e+00
vertex 1.538936e+02 -4.225166e+01 -6.227067e+00
vertex 1.538860e+02 -4.222530e+01 -6.227067e+00
endloop
endfacet
facet normal -3.251637e-03 -8.157124e-04 -2.427446e-04
outer loop
vertex 1.538936e+02 -4.225166e+01 -6.227067e+00
vertex 1.538936e+02 -4.223344e+01 -6.288303e+00
vertex 1.539069e+02 -4.228654e+01 -6.288303e+00
endloop
endfacet
facet normal -2.135755e-03 -4.475673e-04 -2.096839e-04
outer loop
vertex 1.539069e+02 -4.228654e+01 -6.288303e+00
vertex 1.539009e+02 -4.228654e+01 -6.227067e+00
vertex 1.538936e+02 -4.225166e+01 -6.227067e+00
endloop
endfacet
facet normal -1.614126e-03 -4.671856e-04 -6.877875e-05
outer loop
vertex 1.538834e+02 -4.222530e+01 -6.165833e+00
vertex 1.538860e+02 -4.222530e+01 -6.227067e+00
vertex 1.538936e+02 -4.225166e+01 -6.227067e+00
endloop
endfacet
facet normal -2.678141e-03 -6.269631e-04 -1.779062e-04
outer loop
vertex 1.538936e+02 -4.225166e+01 -6.227067e+00
vertex 1.538936e+02 -4.226904e+01 -6.165833e+00
vertex 1.538834e+02 -4.222530e+01 -6.165833e+00
endloop
endfacet
facet normal -2.135739e-03 -4.475638e-04 -1.270001e-04
outer loop
vertex 1.538936e+02 -4.226904e+01 -6.165833e+00
vertex 1.538936e+02 -4.225166e+01 -6.227067e+00
vertex 1.539009e+02 -4.228654e+01 -6.227067e+00
endloop
endfacet
facet normal -1.071724e-03 -1.831368e-04 -7.557706e-05
outer loop
vertex 1.539009e+02 -4.228654e+01 -6.227067e+00
vertex 1.538966e+02 -4.228654e+01 -6.165833e+00
vertex 1.538936e+02 -4.226904e+01 -6.165833e+00
endloop
endfacet
facet normal -7.047550e-04 -3.232950e-04 6.128877e-05
outer loop
vertex 1.539496e+02 -4.259272e+01 -6.104597e+00
vertex 1.539442e+02 -4.259272e+01 -6.165833e+00
vertex 1.539548e+02 -4.260423e+01 -6.104597e+00
endloop
endfacet
facet normal -9.306410e-04 -6.493931e-04 3.911933e-05
outer loop
vertex 1.539548e+02 -4.260423e+01 -6.104597e+00
vertex 1.539442e+02 -4.259272e+01 -6.165833e+00
vertex 1.539548e+02 -4.260791e+01 -6.165833e+00
endloop
endfacet
facet normal -3.749894e-03 -1.011932e-03 6.372660e-04
outer loop
vertex 1.539381e+02 -4.253148e+01 -6.104597e+00
vertex 1.539277e+02 -4.253148e+01 -6.165833e+00
vertex 1.539442e+02 -4.259272e+01 -6.165833e+00
endloop
endfacet
facet normal -3.749894e-03 -7.007839e-04 3.261082e-04
outer loop
vertex 1.539442e+02 -4.259272e+01 -6.165833e+00
vertex 1.539496e+02 -4.259272e+01 -6.104597e+00
vertex 1.539381e+02 -4.253148e+01 -6.104597e+00
endloop
endfacet
facet normal -3.749661e-03 8.035655e-05 3.728054e-04
outer loop
vertex 1.539351e+02 -4.247025e+01 -6.104597e+00
vertex 1.539290e+02 -4.247025e+01 -6.165833e+00
vertex 1.539277e+02 -4.253148e+01 -6.165833e+00
endloop
endfacet
facet normal -3.749661e-03 -1.840726e-04 6.372263e-04
outer loop
vertex 1.539277e+02 -4.253148e+01 -6.165833e+00
vertex 1.539381e+02 -4.253148e+01 -6.104597e+00
vertex 1.539351e+02 -4.247025e+01 -6.104597e+00
endloop
endfacet
facet normal -3.749661e-03 -3.737514e-04 4.643716e-04
outer loop
vertex 1.539305e+02 -4.240901e+01 -6.104597e+00
vertex 1.539229e+02 -4.240901e+01 -6.165833e+00
vertex 1.539290e+02 -4.247025e+01 -6.165833e+00
endloop
endfacet
facet normal -3.749661e-03 -2.821823e-04 3.728054e-04
outer loop
vertex 1.539290e+02 -4.247025e+01 -6.165833e+00
vertex 1.539351e+02 -4.247025e+01 -6.104597e+00
vertex 1.539305e+02 -4.240901e+01 -6.104597e+00
endloop
endfacet
facet normal -3.749894e-03 -7.428309e-04 5.531693e-04
outer loop
vertex 1.539198e+02 -4.234777e+01 -6.104597e+00
vertex 1.539108e+02 -4.234777e+01 -6.165833e+00
vertex 1.539229e+02 -4.240901e+01 -6.165833e+00
endloop
endfacet
facet normal -3.749894e-03 -6.540649e-04 4.644006e-04
outer loop
vertex 1.539229e+02 -4.240901e+01 -6.165833e+00
vertex 1.539305e+02 -4.240901e+01 -6.104597e+00
vertex 1.539198e+02 -4.234777e+01 -6.104597e+00
endloop
endfacet
facet normal -3.749661e-03 -8.689720e-04 2.018195e-04
outer loop
vertex 1.538999e+02 -4.228654e+01 -6.104597e+00
vertex 1.538966e+02 -4.228654e+01 -6.165833e+00
vertex 1.539108e+02 -4.234777e+01 -6.165833e+00
endloop
endfacet
facet normal -3.749661e-03 -1.220298e-03 5.531348e-04
outer loop
vertex 1.539108e+02 -4.234777e+01 -6.165833e+00
vertex 1.539198e+02 -4.234777e+01 -6.104597e+00
vertex 1.538999e+02 -4.228654e+01 -6.104597e+00
endloop
endfacet
facet normal -2.678162e-03 -6.269680e-04 6.260892e-05
outer loop
vertex 1.538936e+02 -4.226292e+01 -6.104597e+00
vertex 1.538834e+02 -4.222530e+01 -6.165833e+00
vertex 1.538936e+02 -4.226904e+01 -6.165833e+00
endloop
endfacet
facet normal -1.446184e-03 -3.849639e-04 3.844243e-05
outer loop
vertex 1.538936e+02 -4.226292e+01 -6.104597e+00
vertex 1.538936e+02 -4.226904e+01 -6.165833e+00
vertex 1.538999e+02 -4.228654e+01 -6.104597e+00
endloop
endfacet
facet normal -1.071732e-03 -1.831382e-04 5.768426e-05
outer loop
vertex 1.538999e+02 -4.228654e+01 -6.104597e+00
vertex 1.538936e+02 -4.226904e+01 -6.165833e+00
vertex 1.538966e+02 -4.228654e+01 -6.165833e+00
endloop
endfacet
endsolid Mesh.part.part.part.part
